#include "../huge_driver/hUGEDriver.h"
#include <stddef.h>

const unsigned char order_cnt_spot = 22;

const unsigned char P0_spot[] = {
    DN(___,0,0x000),
    DN(___,0,0x000),
    DN(___,0,0x000),
    DN(___,0,0x000),
    DN(___,0,0x000),
    DN(___,0,0x000),
    DN(___,0,0x000),
    DN(___,0,0x000),
    DN(___,0,0x000),
    DN(___,0,0x000),
    DN(___,0,0x000),
    DN(___,0,0x000),
    DN(___,0,0x000),
    DN(___,0,0x000),
    DN(___,0,0x000),
    DN(___,0,0x000),
    DN(___,0,0x000),
    DN(___,0,0x000),
    DN(___,0,0x000),
    DN(___,0,0x000),
    DN(___,0,0x000),
    DN(___,0,0x000),
    DN(___,0,0x000),
    DN(___,0,0x000),
    DN(___,0,0x000),
    DN(___,0,0x000),
    DN(___,0,0x000),
    DN(___,0,0x000),
    DN(___,0,0x000),
    DN(___,0,0x000),
    DN(___,0,0x000),
    DN(___,0,0x000),
    DN(___,0,0x000),
    DN(___,0,0x000),
    DN(___,0,0x000),
    DN(___,0,0x000),
    DN(___,0,0x000),
    DN(___,0,0x000),
    DN(___,0,0x000),
    DN(___,0,0x000),
    DN(___,0,0x000),
    DN(___,0,0x000),
    DN(___,0,0x000),
    DN(___,0,0x000),
    DN(___,0,0x000),
    DN(___,0,0x000),
    DN(___,0,0x000),
    DN(___,0,0x000),
    DN(___,0,0x000),
    DN(___,0,0x000),
    DN(___,0,0x000),
    DN(___,0,0x000),
    DN(___,0,0x000),
    DN(___,0,0x000),
    DN(___,0,0x000),
    DN(___,0,0x000),
    DN(___,0,0x000),
    DN(___,0,0x000),
    DN(___,0,0x000),
    DN(___,0,0x000),
    DN(___,0,0x000),
    DN(___,0,0x000),
    DN(___,0,0x000),
    DN(___,0,0x000),
};
const unsigned char P1_spot[] = {
    DN(___,0,0xE00),
    DN(___,0,0x000),
    DN(___,0,0x000),
    DN(___,0,0x000),
    DN(___,0,0x000),
    DN(___,0,0x000),
    DN(___,0,0x000),
    DN(A_4,6,0xC06),
    DN(D_5,6,0xC06),
    DN(A_4,6,0xC06),
    DN(Fs4,6,0xC06),
    DN(A_4,6,0xC06),
    DN(D_5,6,0xC06),
    DN(A_4,6,0xC06),
    DN(Fs5,6,0xC06),
    DN(D_5,6,0xC06),
    DN(___,0,0xE00),
    DN(___,0,0x000),
    DN(___,0,0x000),
    DN(___,0,0x000),
    DN(___,0,0x000),
    DN(___,0,0x000),
    DN(___,0,0x000),
    DN(D_4,6,0xC06),
    DN(G_4,6,0xC06),
    DN(D_4,6,0xC06),
    DN(B_3,6,0xC06),
    DN(D_4,6,0xC06),
    DN(G_4,6,0xC06),
    DN(D_4,6,0xC06),
    DN(B_4,6,0xC06),
    DN(G_4,6,0xC06),
    DN(___,0,0xE00),
    DN(___,0,0x000),
    DN(___,0,0x000),
    DN(___,0,0x000),
    DN(___,0,0x000),
    DN(___,0,0x000),
    DN(___,0,0x000),
    DN(G_4,6,0xC06),
    DN(C_5,6,0xC06),
    DN(G_4,6,0xC06),
    DN(E_4,6,0xC06),
    DN(G_4,6,0xC06),
    DN(C_5,6,0xC06),
    DN(G_4,6,0xC06),
    DN(E_5,6,0xC06),
    DN(C_5,6,0xC06),
    DN(___,0,0xE00),
    DN(___,0,0x000),
    DN(___,0,0x000),
    DN(___,0,0x000),
    DN(___,0,0x000),
    DN(___,0,0x000),
    DN(___,0,0x000),
    DN(C_4,6,0xC06),
    DN(F_4,6,0xC06),
    DN(C_4,6,0xC06),
    DN(A_3,6,0xC06),
    DN(C_4,6,0xC06),
    DN(F_4,6,0xC06),
    DN(C_4,6,0xC06),
    DN(A_4,6,0xC06),
    DN(F_4,6,0xC06),
};
const unsigned char P2_spot[] = {
    DN(D_4,3,0x000),
    DN(___,0,0x000),
    DN(___,0,0x000),
    DN(___,0,0x000),
    DN(___,0,0x000),
    DN(___,0,0x000),
    DN(___,0,0xE00),
    DN(___,0,0x000),
    DN(D_6,1,0x000),
    DN(___,0,0xC08),
    DN(___,0,0xE00),
    DN(___,0,0x000),
    DN(___,0,0x000),
    DN(___,0,0x000),
    DN(___,0,0x000),
    DN(___,0,0x000),
    DN(G_3,3,0x000),
    DN(___,0,0x000),
    DN(___,0,0x000),
    DN(___,0,0x000),
    DN(___,0,0x000),
    DN(___,0,0x000),
    DN(___,0,0xE00),
    DN(___,0,0x000),
    DN(D_6,1,0x000),
    DN(___,0,0xC08),
    DN(___,0,0xE00),
    DN(___,0,0x000),
    DN(___,0,0x000),
    DN(___,0,0x000),
    DN(___,0,0x000),
    DN(___,0,0x000),
    DN(C_4,3,0x000),
    DN(___,0,0x000),
    DN(___,0,0x000),
    DN(___,0,0x000),
    DN(___,0,0x000),
    DN(___,0,0x000),
    DN(___,0,0xE00),
    DN(___,0,0x000),
    DN(D_6,1,0x000),
    DN(___,0,0xC08),
    DN(___,0,0xE00),
    DN(___,0,0x000),
    DN(___,0,0x000),
    DN(___,0,0x000),
    DN(___,0,0x000),
    DN(___,0,0x000),
    DN(F_3,3,0x000),
    DN(___,0,0x000),
    DN(___,0,0x000),
    DN(___,0,0x000),
    DN(___,0,0x000),
    DN(___,0,0x000),
    DN(___,0,0xE00),
    DN(___,0,0x000),
    DN(D_6,1,0x000),
    DN(___,0,0xC08),
    DN(___,0,0xE00),
    DN(___,0,0x000),
    DN(D_6,1,0x000),
    DN(___,0,0xC08),
    DN(D_6,1,0x000),
    DN(___,0,0xC08),
};
const unsigned char P3_spot[] = {
    DN(___,0,0xE00),
    DN(___,0,0x000),
    DN(___,0,0x000),
    DN(___,0,0x000),
    DN(G_7,2,0xC06),
    DN(___,0,0xC04),
    DN(___,0,0xC02),
    DN(G_7,2,0xC06),
    DN(B_6,2,0xC06),
    DN(___,0,0xC05),
    DN(___,0,0xC04),
    DN(___,0,0xC02),
    DN(G_7,2,0xC06),
    DN(___,0,0xC04),
    DN(___,0,0xC02),
    DN(G_7,2,0xC06),
    DN(___,0,0xC06),
    DN(___,0,0xC04),
    DN(___,0,0xC02),
    DN(___,0,0xC01),
    DN(G_7,2,0xC06),
    DN(___,0,0xC04),
    DN(___,0,0xC02),
    DN(G_7,2,0xC06),
    DN(B_6,2,0xC06),
    DN(___,0,0xC05),
    DN(___,0,0xC04),
    DN(___,0,0xC02),
    DN(G_7,2,0xC06),
    DN(___,0,0xC04),
    DN(___,0,0xC02),
    DN(G_7,2,0xC06),
    DN(___,0,0xC06),
    DN(___,0,0xC04),
    DN(___,0,0xC02),
    DN(___,0,0xC01),
    DN(G_7,2,0xC06),
    DN(___,0,0xC04),
    DN(___,0,0xC02),
    DN(G_7,2,0xC06),
    DN(B_6,2,0xC06),
    DN(___,0,0xC05),
    DN(___,0,0xC04),
    DN(___,0,0xC02),
    DN(G_7,2,0xC06),
    DN(___,0,0xC04),
    DN(___,0,0xC02),
    DN(G_7,2,0xC06),
    DN(___,0,0xC06),
    DN(___,0,0xC04),
    DN(___,0,0xC02),
    DN(___,0,0xC01),
    DN(G_7,2,0xC06),
    DN(___,0,0xC04),
    DN(___,0,0xC02),
    DN(G_7,2,0xC06),
    DN(B_6,2,0xC06),
    DN(___,0,0xC05),
    DN(___,0,0xC04),
    DN(___,0,0xC02),
    DN(B_6,2,0xC06),
    DN(___,0,0xC05),
    DN(B_6,2,0xC06),
    DN(___,0,0xC05),
};
const unsigned char P4_spot[] = {
    DN(G_7,2,0xC06),
    DN(___,0,0xC04),
    DN(___,0,0xC02),
    DN(___,0,0xC01),
    DN(G_7,2,0xC06),
    DN(___,0,0xC04),
    DN(___,0,0xC02),
    DN(G_7,2,0xC06),
    DN(B_6,2,0xC06),
    DN(___,0,0xC05),
    DN(___,0,0xC04),
    DN(___,0,0xC02),
    DN(G_7,2,0xC06),
    DN(___,0,0xC04),
    DN(___,0,0xC02),
    DN(G_7,2,0xC06),
    DN(___,0,0xC06),
    DN(___,0,0xC04),
    DN(___,0,0xC02),
    DN(___,0,0xC01),
    DN(G_7,2,0xC06),
    DN(___,0,0xC04),
    DN(___,0,0xC02),
    DN(G_7,2,0xC06),
    DN(B_6,2,0xC06),
    DN(___,0,0xC05),
    DN(___,0,0xC04),
    DN(___,0,0xC02),
    DN(G_7,2,0xC06),
    DN(___,0,0xC04),
    DN(___,0,0xC02),
    DN(G_7,2,0xC06),
    DN(___,0,0xC06),
    DN(___,0,0xC04),
    DN(___,0,0xC02),
    DN(___,0,0xC01),
    DN(G_7,2,0xC06),
    DN(___,0,0xC04),
    DN(___,0,0xC02),
    DN(G_7,2,0xC06),
    DN(B_6,2,0xC06),
    DN(___,0,0xC05),
    DN(___,0,0xC04),
    DN(___,0,0xC02),
    DN(G_7,2,0xC06),
    DN(___,0,0xC04),
    DN(___,0,0xC02),
    DN(G_7,2,0xC06),
    DN(___,0,0xC06),
    DN(___,0,0xC04),
    DN(___,0,0xC02),
    DN(___,0,0xC01),
    DN(G_7,2,0xC06),
    DN(___,0,0xC04),
    DN(___,0,0xC02),
    DN(G_7,2,0xC06),
    DN(B_6,2,0xC06),
    DN(___,0,0xC05),
    DN(___,0,0xC04),
    DN(___,0,0xC02),
    DN(B_6,2,0xC06),
    DN(___,0,0xC05),
    DN(B_6,2,0xC06),
    DN(___,0,0xC05),
};
const unsigned char P5_spot[] = {
    DN(D_4,5,0xC0B),
    DN(___,0,0xC0A),
    DN(___,0,0xC09),
    DN(___,0,0xC08),
    DN(___,0,0xC07),
    DN(___,0,0xC06),
    DN(___,0,0xC05),
    DN(___,0,0xC04),
    DN(___,0,0xC03),
    DN(___,0,0xC02),
    DN(___,0,0xC01),
    DN(___,0,0x000),
    DN(___,0,0xE00),
    DN(___,0,0x000),
    DN(___,0,0x000),
    DN(___,0,0x000),
    DN(G_3,5,0xC0B),
    DN(___,0,0xC0A),
    DN(___,0,0xC09),
    DN(___,0,0xC08),
    DN(___,0,0xC07),
    DN(___,0,0xC06),
    DN(___,0,0xC05),
    DN(___,0,0xC04),
    DN(___,0,0xC03),
    DN(___,0,0xC02),
    DN(___,0,0xC01),
    DN(___,0,0x000),
    DN(___,0,0xE00),
    DN(___,0,0x000),
    DN(___,0,0x000),
    DN(___,0,0x000),
    DN(C_4,5,0xC0B),
    DN(___,0,0xC0A),
    DN(___,0,0xC09),
    DN(___,0,0xC08),
    DN(___,0,0xC07),
    DN(___,0,0xC06),
    DN(___,0,0xC05),
    DN(___,0,0xC04),
    DN(___,0,0xC03),
    DN(___,0,0xC02),
    DN(___,0,0xC01),
    DN(___,0,0x000),
    DN(___,0,0xE00),
    DN(___,0,0x000),
    DN(___,0,0x000),
    DN(___,0,0x000),
    DN(F_3,5,0xC0B),
    DN(___,0,0xC0A),
    DN(___,0,0xC09),
    DN(___,0,0xC08),
    DN(___,0,0xC07),
    DN(___,0,0xC06),
    DN(___,0,0xC05),
    DN(___,0,0xC04),
    DN(___,0,0xC03),
    DN(___,0,0xC02),
    DN(___,0,0xC01),
    DN(___,0,0x000),
    DN(___,0,0xE00),
    DN(___,0,0x000),
    DN(___,0,0x000),
    DN(___,0,0x000),
};
const unsigned char P6_spot[] = {
    DN(As3,5,0xC0B),
    DN(___,0,0xC0A),
    DN(___,0,0xC09),
    DN(___,0,0xC08),
    DN(___,0,0xC07),
    DN(___,0,0xC06),
    DN(___,0,0xC05),
    DN(___,0,0xC04),
    DN(___,0,0xC03),
    DN(___,0,0xC02),
    DN(___,0,0xC01),
    DN(___,0,0x000),
    DN(___,0,0xE00),
    DN(___,0,0x000),
    DN(___,0,0x000),
    DN(___,0,0x000),
    DN(Ds3,5,0xC0B),
    DN(___,0,0xC0A),
    DN(___,0,0xC09),
    DN(___,0,0xC08),
    DN(___,0,0xC07),
    DN(___,0,0xC06),
    DN(___,0,0xC05),
    DN(___,0,0xC04),
    DN(___,0,0xC03),
    DN(___,0,0xC02),
    DN(___,0,0xC01),
    DN(___,0,0x000),
    DN(___,0,0xE00),
    DN(___,0,0x000),
    DN(___,0,0x000),
    DN(___,0,0x000),
    DN(A_3,5,0xC0B),
    DN(___,0,0xC0A),
    DN(___,0,0xC09),
    DN(___,0,0xC08),
    DN(___,0,0xC07),
    DN(___,0,0xC06),
    DN(___,0,0xC05),
    DN(___,0,0xC04),
    DN(___,0,0xC03),
    DN(___,0,0xC02),
    DN(___,0,0xC01),
    DN(___,0,0x000),
    DN(___,0,0xE00),
    DN(___,0,0x000),
    DN(___,0,0x000),
    DN(___,0,0x000),
    DN(D_3,5,0xC0B),
    DN(___,0,0xC0A),
    DN(___,0,0xC09),
    DN(___,0,0xC08),
    DN(___,0,0xC07),
    DN(___,0,0xC06),
    DN(___,0,0xC05),
    DN(___,0,0xC04),
    DN(___,0,0xC03),
    DN(___,0,0xC02),
    DN(___,0,0xC01),
    DN(___,0,0x000),
    DN(___,0,0xE00),
    DN(___,0,0x000),
    DN(___,0,0x000),
    DN(___,0,0x000),
};
const unsigned char P7_spot[] = {
    DN(As3,3,0x000),
    DN(___,0,0x000),
    DN(___,0,0x000),
    DN(___,0,0x000),
    DN(___,0,0x000),
    DN(___,0,0x000),
    DN(___,0,0xE00),
    DN(___,0,0x000),
    DN(D_6,1,0x000),
    DN(___,0,0xC08),
    DN(___,0,0xE00),
    DN(___,0,0x000),
    DN(___,0,0x000),
    DN(___,0,0x000),
    DN(___,0,0x000),
    DN(___,0,0x000),
    DN(Ds3,3,0x000),
    DN(___,0,0x000),
    DN(___,0,0x000),
    DN(___,0,0x000),
    DN(___,0,0x000),
    DN(___,0,0x000),
    DN(___,0,0xE00),
    DN(___,0,0x000),
    DN(D_6,1,0x000),
    DN(___,0,0xC08),
    DN(___,0,0xE00),
    DN(___,0,0x000),
    DN(___,0,0x000),
    DN(___,0,0x000),
    DN(___,0,0x000),
    DN(___,0,0x000),
    DN(A_3,3,0x000),
    DN(___,0,0x000),
    DN(___,0,0x000),
    DN(___,0,0x000),
    DN(___,0,0x000),
    DN(___,0,0x000),
    DN(___,0,0xE00),
    DN(___,0,0x000),
    DN(D_6,1,0x000),
    DN(___,0,0xC08),
    DN(___,0,0xE00),
    DN(___,0,0x000),
    DN(___,0,0x000),
    DN(___,0,0x000),
    DN(___,0,0x000),
    DN(___,0,0x000),
    DN(D_3,3,0x000),
    DN(___,0,0x000),
    DN(___,0,0x000),
    DN(___,0,0x000),
    DN(___,0,0x000),
    DN(___,0,0x000),
    DN(___,0,0xE00),
    DN(___,0,0x000),
    DN(D_6,1,0x000),
    DN(___,0,0xC08),
    DN(___,0,0xE00),
    DN(___,0,0x000),
    DN(D_6,1,0x000),
    DN(___,0,0xC08),
    DN(D_6,1,0x000),
    DN(___,0,0xC08),
};
const unsigned char P8_spot[] = {
    DN(___,0,0xE00),
    DN(___,0,0x000),
    DN(___,0,0x000),
    DN(___,0,0x000),
    DN(___,0,0x000),
    DN(___,0,0x000),
    DN(___,0,0x000),
    DN(___,0,0x000),
    DN(___,0,0x000),
    DN(___,0,0x000),
    DN(___,0,0x000),
    DN(___,0,0x000),
    DN(___,0,0x000),
    DN(___,0,0x000),
    DN(___,0,0x000),
    DN(___,0,0x000),
    DN(___,0,0x000),
    DN(___,0,0x000),
    DN(___,0,0x000),
    DN(___,0,0x000),
    DN(___,0,0x000),
    DN(___,0,0x000),
    DN(___,0,0x000),
    DN(___,0,0x000),
    DN(___,0,0x000),
    DN(___,0,0x000),
    DN(___,0,0x000),
    DN(___,0,0x000),
    DN(___,0,0x000),
    DN(___,0,0x000),
    DN(___,0,0x000),
    DN(___,0,0x000),
    DN(___,0,0x000),
    DN(___,0,0x000),
    DN(___,0,0x000),
    DN(___,0,0x000),
    DN(___,0,0x000),
    DN(___,0,0x000),
    DN(___,0,0x000),
    DN(___,0,0x000),
    DN(___,0,0x000),
    DN(___,0,0x000),
    DN(___,0,0x000),
    DN(___,0,0x000),
    DN(___,0,0x000),
    DN(___,0,0x000),
    DN(___,0,0x000),
    DN(___,0,0x000),
    DN(___,0,0x000),
    DN(___,0,0x000),
    DN(___,0,0x000),
    DN(___,0,0x000),
    DN(___,0,0x000),
    DN(___,0,0x000),
    DN(___,0,0x000),
    DN(___,0,0x000),
    DN(___,0,0x000),
    DN(___,0,0x000),
    DN(___,0,0x000),
    DN(___,0,0x000),
    DN(___,0,0x000),
    DN(___,0,0x000),
    DN(___,0,0x000),
    DN(___,0,0x000),
};
const unsigned char P9_spot[] = {
    DN(___,0,0xE00),
    DN(___,0,0x000),
    DN(___,0,0x000),
    DN(___,0,0x000),
    DN(___,0,0x000),
    DN(___,0,0x000),
    DN(___,0,0x000),
    DN(___,0,0x000),
    DN(D_6,1,0x000),
    DN(___,0,0xC08),
    DN(___,0,0xE00),
    DN(___,0,0x000),
    DN(___,0,0x000),
    DN(___,0,0x000),
    DN(___,0,0x000),
    DN(___,0,0x000),
    DN(___,0,0x000),
    DN(___,0,0x000),
    DN(___,0,0x000),
    DN(___,0,0x000),
    DN(___,0,0x000),
    DN(___,0,0x000),
    DN(___,0,0x000),
    DN(___,0,0x000),
    DN(D_6,1,0x000),
    DN(___,0,0xC08),
    DN(___,0,0xE00),
    DN(___,0,0x000),
    DN(___,0,0x000),
    DN(___,0,0x000),
    DN(___,0,0x000),
    DN(___,0,0x000),
    DN(___,0,0x000),
    DN(___,0,0x000),
    DN(___,0,0x000),
    DN(___,0,0x000),
    DN(___,0,0x000),
    DN(___,0,0x000),
    DN(___,0,0x000),
    DN(___,0,0x000),
    DN(D_6,1,0x000),
    DN(___,0,0xC08),
    DN(___,0,0xE00),
    DN(___,0,0x000),
    DN(___,0,0x000),
    DN(___,0,0x000),
    DN(___,0,0x000),
    DN(___,0,0x000),
    DN(___,0,0x000),
    DN(___,0,0x000),
    DN(___,0,0x000),
    DN(___,0,0x000),
    DN(___,0,0x000),
    DN(___,0,0x000),
    DN(___,0,0x000),
    DN(___,0,0x000),
    DN(D_6,1,0x000),
    DN(___,0,0xC08),
    DN(___,0,0xE00),
    DN(___,0,0x000),
    DN(D_6,1,0x000),
    DN(___,0,0xC08),
    DN(D_6,1,0x000),
    DN(___,0,0xC08),
};
const unsigned char P10_spot[] = {
    DN(D_5,5,0xC0B),
    DN(___,0,0xC0A),
    DN(___,0,0xC09),
    DN(___,0,0xC08),
    DN(___,0,0xC07),
    DN(___,0,0xC06),
    DN(___,0,0xC05),
    DN(___,0,0xC04),
    DN(___,0,0xC03),
    DN(___,0,0xC02),
    DN(___,0,0xC01),
    DN(___,0,0x000),
    DN(___,0,0xE00),
    DN(___,0,0x000),
    DN(___,0,0x000),
    DN(___,0,0x000),
    DN(G_4,5,0xC0B),
    DN(___,0,0xC0A),
    DN(___,0,0xC09),
    DN(___,0,0xC08),
    DN(___,0,0xC07),
    DN(___,0,0xC06),
    DN(___,0,0xC05),
    DN(___,0,0xC04),
    DN(___,0,0xC03),
    DN(___,0,0xC02),
    DN(___,0,0xC01),
    DN(___,0,0x000),
    DN(___,0,0xE00),
    DN(___,0,0x000),
    DN(___,0,0x000),
    DN(___,0,0x000),
    DN(C_5,5,0xC0B),
    DN(___,0,0xC0A),
    DN(___,0,0xC09),
    DN(___,0,0xC08),
    DN(___,0,0xC07),
    DN(___,0,0xC06),
    DN(___,0,0xC05),
    DN(___,0,0xC04),
    DN(___,0,0xC03),
    DN(___,0,0xC02),
    DN(___,0,0xC01),
    DN(___,0,0x000),
    DN(___,0,0xE00),
    DN(___,0,0x000),
    DN(___,0,0x000),
    DN(___,0,0x000),
    DN(F_4,5,0xC0B),
    DN(___,0,0xC0A),
    DN(___,0,0xC09),
    DN(___,0,0xC08),
    DN(___,0,0xC07),
    DN(___,0,0xC06),
    DN(___,0,0xC05),
    DN(___,0,0xC04),
    DN(___,0,0xC03),
    DN(___,0,0xC02),
    DN(___,0,0xC01),
    DN(___,0,0x000),
    DN(___,0,0xE00),
    DN(___,0,0x000),
    DN(___,0,0x000),
    DN(___,0,0x000),
};

const unsigned char itSquareSP5_spot[] = {
    DN(36,0,0x000),
    DN(36,0,0x000),
    DN(36,0,0x000),
    DN(40,0,0x000),
    DN(40,0,0x000),
    DN(40,0,0x000),
    DN(43,0,0x000),
    DN(43,0,0x000),
    DN(43,0,0x000),
    DN(48,0,0x000),
    DN(48,0,0x000),
    DN(48,0,0x000),
    DN(52,0,0x000),
    DN(52,0,0x000),
    DN(52,0,0x000),
    DN(35,0,0x000),
    DN(35,0,0x000),
    DN(35,1,0x000),
    DN(___,0,0x000),
    DN(___,0,0x000),
    DN(___,0,0x000),
    DN(___,0,0x000),
    DN(___,0,0x000),
    DN(___,0,0x000),
    DN(___,0,0x000),
    DN(___,0,0x000),
    DN(___,0,0x000),
    DN(___,0,0x000),
    DN(___,0,0x000),
    DN(___,0,0x000),
    DN(___,0,0x000),
    DN(___,1,0x000),
};
const unsigned char itSquareSP6_spot[] = {
    DN(36,0,0x000),
    DN(55,0,0x000),
    DN(36,0,0x000),
    DN(___,0,0x000),
    DN(___,0,0x000),
    DN(___,0,0x000),
    DN(___,0,0x000),
    DN(___,0,0x000),
    DN(___,0,0x000),
    DN(___,0,0x000),
    DN(___,0,0x000),
    DN(___,0,0x000),
    DN(___,0,0x000),
    DN(___,0,0x000),
    DN(___,0,0x000),
    DN(___,0,0x000),
    DN(___,0,0x000),
    DN(___,0,0x000),
    DN(___,0,0x000),
    DN(___,0,0x000),
    DN(___,0,0x000),
    DN(___,0,0x000),
    DN(___,0,0x000),
    DN(___,0,0x000),
    DN(___,0,0x000),
    DN(___,0,0x000),
    DN(___,0,0x000),
    DN(___,0,0x000),
    DN(___,0,0x000),
    DN(___,0,0x000),
    DN(___,0,0x000),
    DN(___,1,0x000),
};
const unsigned char itWaveSP1_spot[] = {
    DN(___,0,0x277),
    DN(___,0,0x277),
    DN(___,0,0x277),
    DN(___,0,0x277),
    DN(___,0,0x277),
    DN(___,0,0x277),
    DN(___,0,0x277),
    DN(___,0,0x277),
    DN(___,0,0x277),
    DN(___,0,0x000),
    DN(___,0,0x000),
    DN(___,0,0x000),
    DN(___,0,0x000),
    DN(___,0,0x000),
    DN(___,0,0x000),
    DN(___,0,0x000),
    DN(___,0,0x000),
    DN(___,0,0x000),
    DN(___,0,0x000),
    DN(___,0,0x000),
    DN(___,0,0x000),
    DN(___,0,0x000),
    DN(___,0,0x000),
    DN(___,0,0x000),
    DN(___,0,0x000),
    DN(___,0,0x000),
    DN(___,0,0x000),
    DN(___,0,0x000),
    DN(___,0,0x000),
    DN(___,0,0x000),
    DN(___,0,0x000),
    DN(___,1,0x000),
};
const unsigned char* const order1_spot[] = {P0_spot,P0_spot,P0_spot,P0_spot,P0_spot,P0_spot,P0_spot,P0_spot,P0_spot,P0_spot,P0_spot};
const unsigned char* const order2_spot[] = {P1_spot, P1_spot, P5_spot, P5_spot, P6_spot, P5_spot, P6_spot, P8_spot, P8_spot, P5_spot, P10_spot};
const unsigned char* const order3_spot[] = {P2_spot, P2_spot, P2_spot, P2_spot, P7_spot, P2_spot, P7_spot, P9_spot, P9_spot, P9_spot, P9_spot};
const unsigned char* const order4_spot[] = {P3_spot, P4_spot, P4_spot, P4_spot, P4_spot, P4_spot, P4_spot, P4_spot, P4_spot, P4_spot, P4_spot};

const hUGEDutyInstr_t duty_instruments_spot[] = {
    {8,0,240,0,128},
    {8,64,240,0,128},
    {8,128,240,0,128},
    {8,192,240,0,128},
    {8,192,240,itSquareSP5_spot,128},
    {8,128,240,itSquareSP6_spot,128},
};
const hUGEWaveInstr_t wave_instruments_spot[] = {
    {0,32,0,itWaveSP1_spot,128},
    {0,32,1,0,128},
    {0,32,2,0,128},
};
const hUGENoiseInstr_t noise_instruments_spot[] = {
    {128,0,252,0,0},
    {240,0,0,0,0},
};

const unsigned char waves_spot[] = {
    0,18,52,87,138,188,222,255,255,237,203,168,117,67,33,0,
    1,56,206,255,237,186,151,102,85,104,154,169,152,101,66,16,
    253,185,102,71,77,213,232,170,85,232,55,167,171,53,123,149,
};

const hUGESong_t spot_music = {4, &order_cnt_spot, order1_spot, order2_spot, order3_spot, order4_spot, duty_instruments_spot, wave_instruments_spot, noise_instruments_spot, NULL, waves_spot};
