#include "../huge_driver/hUGEDriver.h"
#include <stddef.h>

 const unsigned char order_cnt_title = 34;

 const unsigned char P0_title[] = {
    DN(___,0,0xE00),
    DN(___,0,0x8DE),
    DN(___,0,0x000),
    DN(___,0,0x000),
    DN(___,0,0x000),
    DN(___,0,0x000),
    DN(___,0,0x000),
    DN(___,0,0x000),
    DN(___,0,0x000),
    DN(___,0,0x000),
    DN(___,0,0x000),
    DN(___,0,0x000),
    DN(___,0,0x000),
    DN(___,0,0x000),
    DN(___,0,0x000),
    DN(___,0,0x000),
    DN(___,0,0x000),
    DN(___,0,0x000),
    DN(___,0,0x000),
    DN(___,0,0x000),
    DN(___,0,0x000),
    DN(___,0,0x000),
    DN(___,0,0x000),
    DN(___,0,0x000),
    DN(___,0,0x000),
    DN(___,0,0x000),
    DN(___,0,0x000),
    DN(___,0,0x000),
    DN(___,0,0x000),
    DN(___,0,0x000),
    DN(___,0,0x000),
    DN(___,0,0x000),
    DN(___,0,0x000),
    DN(___,0,0x000),
    DN(___,0,0x000),
    DN(___,0,0x000),
    DN(___,0,0x000),
    DN(___,0,0x000),
    DN(___,0,0x000),
    DN(___,0,0x000),
    DN(___,0,0x000),
    DN(___,0,0x000),
    DN(___,0,0x000),
    DN(___,0,0x000),
    DN(___,0,0x000),
    DN(___,0,0x000),
    DN(___,0,0x000),
    DN(___,0,0x000),
    DN(___,0,0x000),
    DN(___,0,0x000),
    DN(___,0,0x000),
    DN(___,0,0x000),
    DN(___,0,0x000),
    DN(___,0,0x000),
    DN(___,0,0x000),
    DN(___,0,0x000),
    DN(___,0,0x000),
    DN(___,0,0x000),
    DN(___,0,0x000),
    DN(___,0,0x000),
    DN(___,0,0x000),
    DN(___,0,0x000),
    DN(___,0,0x000),
    DN(___,0,0x000),
};
 const unsigned char P1_title[] = {
    DN(___,0,0xE00),
    DN(___,0,0x000),
    DN(___,0,0x000),
    DN(___,0,0x000),
    DN(___,0,0x000),
    DN(___,0,0x000),
    DN(___,0,0x000),
    DN(___,0,0x000),
    DN(___,0,0x000),
    DN(___,0,0x000),
    DN(___,0,0x000),
    DN(___,0,0x000),
    DN(___,0,0x000),
    DN(___,0,0x000),
    DN(___,0,0x000),
    DN(___,0,0x000),
    DN(___,0,0x000),
    DN(___,0,0x000),
    DN(___,0,0x000),
    DN(___,0,0x000),
    DN(___,0,0x000),
    DN(___,0,0x000),
    DN(___,0,0x000),
    DN(___,0,0x000),
    DN(___,0,0x000),
    DN(___,0,0x000),
    DN(___,0,0x000),
    DN(___,0,0x000),
    DN(___,0,0x000),
    DN(___,0,0x000),
    DN(___,0,0x000),
    DN(___,0,0x000),
    DN(___,0,0x000),
    DN(___,0,0x000),
    DN(___,0,0x000),
    DN(___,0,0x000),
    DN(___,0,0x000),
    DN(___,0,0x000),
    DN(___,0,0x000),
    DN(___,0,0x000),
    DN(___,0,0x000),
    DN(___,0,0x000),
    DN(___,0,0x000),
    DN(___,0,0x000),
    DN(___,0,0x000),
    DN(___,0,0x000),
    DN(___,0,0x000),
    DN(___,0,0x000),
    DN(___,0,0x000),
    DN(___,0,0x000),
    DN(___,0,0x000),
    DN(___,0,0x000),
    DN(___,0,0x000),
    DN(___,0,0x000),
    DN(___,0,0x000),
    DN(___,0,0x000),
    DN(___,0,0x000),
    DN(___,0,0x000),
    DN(___,0,0x000),
    DN(___,0,0x000),
    DN(___,0,0x000),
    DN(___,0,0x000),
    DN(___,0,0x000),
    DN(___,0,0x000),
};
 const unsigned char P2_title[] = {
    DN(D_5,4,0xC0F),
    DN(___,0,0x000),
    DN(___,0,0x000),
    DN(___,0,0x000),
    DN(___,0,0x000),
    DN(___,0,0x000),
    DN(___,0,0x000),
    DN(___,0,0x000),
    DN(D_6,4,0x000),
    DN(___,0,0x000),
    DN(___,0,0xE00),
    DN(___,0,0x000),
    DN(A_5,4,0x000),
    DN(___,0,0x000),
    DN(___,0,0x000),
    DN(___,0,0x000),
    DN(C_6,4,0x000),
    DN(___,0,0x000),
    DN(___,0,0xE00),
    DN(___,0,0x000),
    DN(C_6,4,0x000),
    DN(___,0,0x000),
    DN(___,0,0x000),
    DN(___,0,0x000),
    DN(___,0,0x000),
    DN(___,0,0x000),
    DN(___,0,0x000),
    DN(___,0,0x000),
    DN(D_6,4,0x000),
    DN(___,0,0x000),
    DN(___,0,0xE00),
    DN(___,0,0x000),
    DN(B_5,4,0x000),
    DN(___,0,0x000),
    DN(___,0,0x000),
    DN(___,0,0x000),
    DN(___,0,0x000),
    DN(___,0,0x000),
    DN(___,0,0x000),
    DN(___,0,0x000),
    DN(___,0,0x000),
    DN(___,0,0x000),
    DN(___,0,0x000),
    DN(___,0,0x000),
    DN(G_5,4,0x000),
    DN(___,0,0x000),
    DN(___,0,0x000),
    DN(___,0,0x000),
    DN(A_5,4,0x000),
    DN(___,0,0xE00),
    DN(A_5,4,0x000),
    DN(___,0,0xE00),
    DN(A_5,4,0x000),
    DN(___,0,0x000),
    DN(___,0,0x000),
    DN(___,0,0xE00),
    DN(A_5,4,0x000),
    DN(___,0,0x000),
    DN(___,0,0x000),
    DN(___,0,0x000),
    DN(F_5,4,0x000),
    DN(___,0,0x000),
    DN(___,0,0x000),
    DN(___,0,0x000),
};
 const unsigned char P3_title[] = {
    DN(B_5,1,0x000),
    DN(___,0,0x000),
    DN(___,0,0x000),
    DN(___,0,0x000),
    DN(___,0,0x000),
    DN(___,0,0x000),
    DN(___,0,0x000),
    DN(___,0,0x000),
    DN(B_6,1,0x000),
    DN(___,0,0x000),
    DN(___,0,0x000),
    DN(___,0,0x000),
    DN(___,0,0x000),
    DN(___,0,0x000),
    DN(___,0,0x000),
    DN(___,0,0x000),
    DN(B_5,1,0x000),
    DN(___,0,0x000),
    DN(___,0,0x000),
    DN(___,0,0x000),
    DN(___,0,0x000),
    DN(___,0,0x000),
    DN(___,0,0x000),
    DN(___,0,0x000),
    DN(B_6,1,0x000),
    DN(___,0,0x000),
    DN(___,0,0x000),
    DN(___,0,0x000),
    DN(___,0,0x000),
    DN(___,0,0x000),
    DN(___,0,0x000),
    DN(___,0,0x000),
    DN(B_5,1,0x000),
    DN(___,0,0x000),
    DN(___,0,0x000),
    DN(___,0,0x000),
    DN(___,0,0x000),
    DN(___,0,0x000),
    DN(___,0,0x000),
    DN(___,0,0x000),
    DN(B_6,1,0x000),
    DN(___,0,0x000),
    DN(___,0,0x000),
    DN(___,0,0x000),
    DN(___,0,0x000),
    DN(___,0,0x000),
    DN(___,0,0x000),
    DN(___,0,0x000),
    DN(B_5,1,0x000),
    DN(___,0,0x000),
    DN(___,0,0x000),
    DN(___,0,0x000),
    DN(___,0,0x000),
    DN(___,0,0x000),
    DN(___,0,0x000),
    DN(___,0,0x000),
    DN(B_6,1,0x000),
    DN(___,0,0x000),
    DN(___,0,0x000),
    DN(___,0,0x000),
    DN(___,0,0x000),
    DN(___,0,0x000),
    DN(___,0,0x000),
    DN(___,0,0x000),
};
 const unsigned char P4_title[] = {
    DN(B_3,3,0xC06),
    DN(___,0,0x107),
    DN(___,0,0x107),
    DN(___,0,0x107),
    DN(___,0,0x107),
    DN(___,0,0x107),
    DN(___,0,0x107),
    DN(___,0,0x107),
    DN(___,0,0x107),
    DN(___,0,0x107),
    DN(___,0,0x107),
    DN(___,0,0x107),
    DN(___,0,0x107),
    DN(___,0,0x107),
    DN(___,0,0x107),
    DN(___,0,0x107),
    DN(___,0,0x107),
    DN(___,0,0x107),
    DN(___,0,0x107),
    DN(___,0,0x107),
    DN(___,0,0x107),
    DN(___,0,0x107),
    DN(___,0,0x107),
    DN(___,0,0x107),
    DN(___,0,0x107),
    DN(___,0,0x107),
    DN(___,0,0x107),
    DN(___,0,0x107),
    DN(___,0,0x107),
    DN(___,0,0x107),
    DN(___,0,0x107),
    DN(___,0,0x107),
    DN(___,0,0x107),
    DN(___,0,0x107),
    DN(___,0,0x107),
    DN(___,0,0x107),
    DN(___,0,0x107),
    DN(___,0,0x107),
    DN(___,0,0x107),
    DN(___,0,0x107),
    DN(___,0,0x107),
    DN(___,0,0x107),
    DN(___,0,0x107),
    DN(___,0,0x107),
    DN(___,0,0x107),
    DN(___,0,0x107),
    DN(___,0,0x107),
    DN(___,0,0x107),
    DN(___,0,0x107),
    DN(___,0,0x107),
    DN(___,0,0x107),
    DN(___,0,0x107),
    DN(___,0,0x107),
    DN(___,0,0x107),
    DN(___,0,0x107),
    DN(___,0,0x107),
    DN(___,0,0x107),
    DN(___,0,0x107),
    DN(___,0,0x107),
    DN(___,0,0x107),
    DN(___,0,0x107),
    DN(___,0,0x107),
    DN(___,0,0x107),
    DN(___,0,0x107),
};
 const unsigned char P5_title[] = {
    DN(D_4,6,0xC06),
    DN(___,0,0x000),
    DN(___,0,0x000),
    DN(___,0,0x000),
    DN(___,0,0x000),
    DN(___,0,0x000),
    DN(___,0,0x000),
    DN(___,0,0x000),
    DN(D_5,6,0xC06),
    DN(___,0,0x000),
    DN(___,0,0xE00),
    DN(___,0,0x000),
    DN(A_4,6,0xC06),
    DN(___,0,0x000),
    DN(___,0,0x000),
    DN(___,0,0x000),
    DN(C_5,6,0xC06),
    DN(___,0,0x000),
    DN(___,0,0xE00),
    DN(___,0,0x000),
    DN(C_5,6,0xC06),
    DN(___,0,0x000),
    DN(___,0,0x000),
    DN(___,0,0x000),
    DN(___,0,0x000),
    DN(___,0,0x000),
    DN(___,0,0x000),
    DN(___,0,0x000),
    DN(D_5,6,0xC06),
    DN(___,0,0x000),
    DN(___,0,0xE00),
    DN(___,0,0x000),
    DN(B_4,6,0xC06),
    DN(___,0,0x000),
    DN(___,0,0x000),
    DN(___,0,0x000),
    DN(___,0,0x000),
    DN(___,0,0x000),
    DN(___,0,0x000),
    DN(___,0,0x000),
    DN(___,0,0x000),
    DN(___,0,0x000),
    DN(___,0,0x000),
    DN(___,0,0x000),
    DN(G_4,6,0xC06),
    DN(___,0,0x000),
    DN(___,0,0x000),
    DN(___,0,0x000),
    DN(A_4,6,0xC06),
    DN(___,0,0xE00),
    DN(A_4,6,0xC06),
    DN(___,0,0xE00),
    DN(A_4,6,0xC06),
    DN(___,0,0x000),
    DN(___,0,0x000),
    DN(___,0,0xE00),
    DN(A_4,6,0xC06),
    DN(___,0,0x000),
    DN(___,0,0x000),
    DN(___,0,0x000),
    DN(F_4,6,0xC06),
    DN(___,0,0x000),
    DN(___,0,0x000),
    DN(___,0,0x000),
};
 const unsigned char P6_title[] = {
    DN(D_5,4,0x000),
    DN(___,0,0x000),
    DN(___,0,0x000),
    DN(___,0,0x000),
    DN(___,0,0x000),
    DN(___,0,0x000),
    DN(___,0,0x000),
    DN(___,0,0x000),
    DN(D_6,4,0x000),
    DN(___,0,0x000),
    DN(___,0,0xE00),
    DN(___,0,0x000),
    DN(A_5,4,0x000),
    DN(___,0,0x000),
    DN(___,0,0x000),
    DN(___,0,0x000),
    DN(C_6,4,0x000),
    DN(___,0,0x000),
    DN(___,0,0xE00),
    DN(___,0,0x000),
    DN(C_6,4,0x000),
    DN(___,0,0x000),
    DN(___,0,0x000),
    DN(___,0,0x000),
    DN(___,0,0x000),
    DN(___,0,0x000),
    DN(___,0,0x000),
    DN(___,0,0x000),
    DN(D_6,4,0x000),
    DN(___,0,0x000),
    DN(___,0,0xE00),
    DN(___,0,0x000),
    DN(B_5,4,0x000),
    DN(___,0,0x000),
    DN(___,0,0x000),
    DN(___,0,0x000),
    DN(___,0,0x000),
    DN(___,0,0x000),
    DN(___,0,0x000),
    DN(___,0,0x000),
    DN(___,0,0x000),
    DN(___,0,0x000),
    DN(___,0,0x000),
    DN(___,0,0x000),
    DN(G_5,4,0x000),
    DN(___,0,0x000),
    DN(___,0,0x000),
    DN(___,0,0x000),
    DN(A_5,4,0x000),
    DN(___,0,0xE00),
    DN(A_5,4,0x000),
    DN(___,0,0xE00),
    DN(A_5,4,0x000),
    DN(___,0,0x000),
    DN(___,0,0x000),
    DN(___,0,0xE00),
    DN(A_5,1,0x000),
    DN(___,0,0xC08),
    DN(A_5,4,0xC0F),
    DN(___,0,0x000),
    DN(A_5,1,0x000),
    DN(___,0,0xC08),
    DN(A_5,1,0xC0F),
    DN(___,0,0xC08),
};
 const unsigned char P7_title[] = {
    DN(B_5,1,0x000),
    DN(___,0,0x000),
    DN(___,0,0x000),
    DN(___,0,0x000),
    DN(B_6,1,0x000),
    DN(___,0,0x000),
    DN(___,0,0x000),
    DN(___,0,0x000),
    DN(B_5,1,0x000),
    DN(___,0,0x000),
    DN(___,0,0x000),
    DN(___,0,0x000),
    DN(B_6,1,0x000),
    DN(___,0,0x000),
    DN(___,0,0x000),
    DN(___,0,0x000),
    DN(B_5,1,0x000),
    DN(___,0,0x000),
    DN(___,0,0x000),
    DN(___,0,0x000),
    DN(B_6,1,0x000),
    DN(___,0,0x000),
    DN(___,0,0x000),
    DN(___,0,0x000),
    DN(B_5,1,0x000),
    DN(___,0,0x000),
    DN(___,0,0x000),
    DN(___,0,0x000),
    DN(B_6,1,0x000),
    DN(___,0,0x000),
    DN(___,0,0x000),
    DN(___,0,0x000),
    DN(B_5,1,0x000),
    DN(___,0,0x000),
    DN(___,0,0x000),
    DN(___,0,0x000),
    DN(B_6,1,0x000),
    DN(___,0,0x000),
    DN(___,0,0x000),
    DN(___,0,0x000),
    DN(B_5,1,0x000),
    DN(___,0,0x000),
    DN(___,0,0x000),
    DN(___,0,0x000),
    DN(B_6,1,0x000),
    DN(___,0,0x000),
    DN(___,0,0x000),
    DN(___,0,0x000),
    DN(B_5,1,0x000),
    DN(___,0,0x000),
    DN(___,0,0x000),
    DN(___,0,0x000),
    DN(B_6,1,0x000),
    DN(___,0,0x000),
    DN(___,0,0x000),
    DN(___,0,0x000),
    DN(B_6,2,0xC06),
    DN(___,0,0xC05),
    DN(___,0,0xC04),
    DN(___,0,0xC02),
    DN(B_6,2,0xC06),
    DN(___,0,0xC05),
    DN(B_6,2,0xC06),
    DN(___,0,0xC05),
};
 const unsigned char P8_title[] = {
    DN(___,0,0xE00),
    DN(___,0,0x8FF),
    DN(___,0,0x000),
    DN(___,0,0x000),
    DN(___,0,0x000),
    DN(___,0,0x000),
    DN(___,0,0x000),
    DN(___,0,0x000),
    DN(F_6,1,0xC08),
    DN(A_6,2,0xC07),
    DN(C_7,3,0xC06),
    DN(F_6,1,0xC05),
    DN(A_6,2,0xC04),
    DN(C_7,3,0xC03),
    DN(F_6,1,0xC02),
    DN(A_6,2,0xC01),
    DN(___,0,0xE00),
    DN(___,0,0x000),
    DN(___,0,0x000),
    DN(___,0,0x000),
    DN(F_6,1,0xC08),
    DN(A_6,2,0xC07),
    DN(C_7,3,0xC06),
    DN(F_6,1,0xC05),
    DN(A_6,2,0xC04),
    DN(C_7,3,0xC03),
    DN(F_6,1,0xC02),
    DN(A_6,2,0xC01),
    DN(F_6,1,0xC08),
    DN(A_6,2,0xC07),
    DN(D_7,3,0xC06),
    DN(F_6,1,0xC05),
    DN(A_6,2,0xC04),
    DN(D_7,3,0xC03),
    DN(F_6,1,0xC02),
    DN(A_6,2,0xC01),
    DN(___,0,0xE00),
    DN(___,0,0x000),
    DN(___,0,0x000),
    DN(___,0,0x000),
    DN(E_6,1,0xC08),
    DN(G_6,2,0xC07),
    DN(B_6,3,0xC06),
    DN(E_6,1,0xC05),
    DN(G_6,2,0xC04),
    DN(B_6,3,0xC03),
    DN(E_6,1,0xC02),
    DN(G_6,2,0xC01),
    DN(___,0,0xE00),
    DN(___,0,0x000),
    DN(___,0,0x000),
    DN(___,0,0x000),
    DN(E_6,1,0xC08),
    DN(G_6,2,0xC07),
    DN(B_6,3,0xC06),
    DN(E_6,1,0xC05),
    DN(G_6,2,0xC04),
    DN(B_6,3,0xC03),
    DN(E_6,1,0xC02),
    DN(G_6,2,0xC01),
    DN(E_6,1,0xC08),
    DN(G_6,2,0xC07),
    DN(B_6,3,0xC06),
    DN(E_6,1,0xC05),
};
 const unsigned char P9_title[] = {
    DN(D_4,1,0xC06),
    DN(___,0,0x000),
    DN(___,0,0x000),
    DN(___,0,0x000),
    DN(___,0,0x000),
    DN(___,0,0x000),
    DN(___,0,0x000),
    DN(___,0,0x000),
    DN(D_5,1,0xC06),
    DN(___,0,0x000),
    DN(___,0,0xE00),
    DN(___,0,0x000),
    DN(A_4,1,0xC06),
    DN(___,0,0x000),
    DN(___,0,0x000),
    DN(___,0,0x000),
    DN(C_5,1,0xC06),
    DN(___,0,0x000),
    DN(___,0,0xE00),
    DN(___,0,0x000),
    DN(C_5,1,0xC06),
    DN(___,0,0x000),
    DN(___,0,0x000),
    DN(___,0,0x000),
    DN(___,0,0x000),
    DN(___,0,0x000),
    DN(___,0,0x000),
    DN(___,0,0x000),
    DN(D_5,1,0xC06),
    DN(___,0,0x000),
    DN(___,0,0xE00),
    DN(___,0,0x000),
    DN(B_4,1,0xC06),
    DN(___,0,0x000),
    DN(___,0,0x000),
    DN(___,0,0x000),
    DN(___,0,0x000),
    DN(___,0,0x000),
    DN(___,0,0x000),
    DN(___,0,0x000),
    DN(___,0,0x000),
    DN(___,0,0x000),
    DN(___,0,0x000),
    DN(___,0,0x000),
    DN(G_4,1,0xC06),
    DN(___,0,0x000),
    DN(___,0,0x000),
    DN(___,0,0x000),
    DN(A_4,1,0xC06),
    DN(___,0,0xE00),
    DN(A_4,1,0xC06),
    DN(___,0,0xE00),
    DN(A_4,1,0xC06),
    DN(___,0,0x000),
    DN(___,0,0x000),
    DN(___,0,0xE00),
    DN(A_4,1,0xC06),
    DN(___,0,0x000),
    DN(___,0,0x000),
    DN(___,0,0x000),
    DN(F_4,1,0xC06),
    DN(___,0,0x000),
    DN(___,0,0x000),
    DN(___,0,0x000),
};
 const unsigned char P10_title[] = {
    DN(E_4,1,0xC0F),
    DN(D_3,2,0x000),
    DN(___,0,0x000),
    DN(___,0,0x000),
    DN(___,0,0x000),
    DN(___,0,0x000),
    DN(___,0,0x000),
    DN(___,0,0x000),
    DN(A_5,1,0x000),
    DN(___,0,0xC08),
    DN(D_4,2,0xC0F),
    DN(___,0,0x000),
    DN(A_3,2,0x000),
    DN(___,0,0x000),
    DN(___,0,0x000),
    DN(___,0,0x000),
    DN(E_4,1,0x000),
    DN(C_4,2,0x000),
    DN(___,0,0xE00),
    DN(___,0,0x000),
    DN(C_4,2,0x000),
    DN(___,0,0x000),
    DN(___,0,0x000),
    DN(___,0,0x000),
    DN(A_5,1,0x000),
    DN(___,0,0xC08),
    DN(C_4,2,0xC0F),
    DN(___,0,0x000),
    DN(D_4,2,0x000),
    DN(___,0,0x000),
    DN(___,0,0xE00),
    DN(___,0,0x000),
    DN(E_4,1,0x000),
    DN(B_3,2,0x000),
    DN(___,0,0x000),
    DN(___,0,0x000),
    DN(___,0,0x000),
    DN(___,0,0x000),
    DN(___,0,0x000),
    DN(___,0,0x000),
    DN(A_5,1,0x000),
    DN(___,0,0xC08),
    DN(B_3,2,0xC0F),
    DN(___,0,0x000),
    DN(G_3,2,0x000),
    DN(___,0,0x000),
    DN(___,0,0x000),
    DN(___,0,0x000),
    DN(E_4,1,0x000),
    DN(___,0,0xE00),
    DN(A_3,2,0x000),
    DN(___,0,0xE00),
    DN(A_3,2,0x000),
    DN(___,0,0x000),
    DN(___,0,0x000),
    DN(___,0,0xE00),
    DN(A_5,1,0x000),
    DN(___,0,0xC08),
    DN(A_3,2,0xC0F),
    DN(___,0,0x000),
    DN(A_5,1,0x000),
    DN(F_3,2,0x000),
    DN(A_5,1,0x000),
    DN(F_3,2,0x000),
};
 const unsigned char P11_title[] = {
    DN(E_6,2,0xC07),
    DN(___,0,0xC03),
    DN(___,0,0xC01),
    DN(___,0,0xE00),
    DN(G_7,2,0xC04),
    DN(___,0,0xC02),
    DN(___,0,0xC01),
    DN(___,0,0x000),
    DN(B_6,2,0xC06),
    DN(___,0,0xC05),
    DN(___,0,0xC04),
    DN(___,0,0xC02),
    DN(G_7,2,0xC04),
    DN(___,0,0xC02),
    DN(___,0,0xC01),
    DN(___,0,0x000),
    DN(E_6,2,0xC07),
    DN(___,0,0xC03),
    DN(___,0,0xC01),
    DN(___,0,0xE00),
    DN(G_7,2,0xC04),
    DN(___,0,0xC02),
    DN(___,0,0xC01),
    DN(___,0,0x000),
    DN(B_6,2,0xC06),
    DN(___,0,0xC05),
    DN(___,0,0xC04),
    DN(___,0,0xC02),
    DN(G_7,2,0xC04),
    DN(___,0,0xC02),
    DN(___,0,0xC01),
    DN(___,0,0x000),
    DN(E_6,2,0xC07),
    DN(___,0,0xC03),
    DN(___,0,0xC01),
    DN(___,0,0xE00),
    DN(G_7,2,0xC04),
    DN(___,0,0xC02),
    DN(___,0,0xC01),
    DN(___,0,0x000),
    DN(B_6,2,0xC06),
    DN(___,0,0xC05),
    DN(___,0,0xC04),
    DN(___,0,0xC02),
    DN(G_7,2,0xC04),
    DN(___,0,0xC02),
    DN(___,0,0xC01),
    DN(___,0,0x000),
    DN(E_6,2,0xC07),
    DN(___,0,0xC03),
    DN(___,0,0xC01),
    DN(___,0,0xE00),
    DN(G_7,2,0xC04),
    DN(___,0,0xC02),
    DN(___,0,0xC01),
    DN(___,0,0x000),
    DN(B_6,2,0xC06),
    DN(___,0,0xC05),
    DN(___,0,0xC04),
    DN(___,0,0xC02),
    DN(B_6,2,0xC06),
    DN(___,0,0xC05),
    DN(B_6,2,0xC06),
    DN(___,0,0xC05),
};
 const unsigned char P12_title[] = {
    DN(G_6,2,0xC04),
    DN(B_6,3,0xC03),
    DN(E_6,1,0xC02),
    DN(G_6,2,0xC01),
    DN(___,0,0xE00),
    DN(___,0,0x000),
    DN(___,0,0x000),
    DN(___,0,0x000),
    DN(F_6,1,0xC08),
    DN(A_6,2,0xC07),
    DN(C_7,3,0xC06),
    DN(F_6,1,0xC05),
    DN(A_6,2,0xC04),
    DN(C_7,3,0xC03),
    DN(F_6,1,0xC02),
    DN(A_6,2,0xC01),
    DN(___,0,0xE00),
    DN(___,0,0x000),
    DN(___,0,0x000),
    DN(___,0,0x000),
    DN(F_6,1,0xC08),
    DN(A_6,2,0xC07),
    DN(C_7,3,0xC06),
    DN(F_6,1,0xC05),
    DN(A_6,2,0xC04),
    DN(C_7,3,0xC03),
    DN(F_6,1,0xC02),
    DN(A_6,2,0xC01),
    DN(F_6,1,0xC08),
    DN(A_6,2,0xC07),
    DN(D_7,3,0xC06),
    DN(F_6,1,0xC05),
    DN(A_6,2,0xC04),
    DN(D_7,3,0xC03),
    DN(F_6,1,0xC02),
    DN(A_6,2,0xC01),
    DN(___,0,0xE00),
    DN(___,0,0x000),
    DN(___,0,0x000),
    DN(___,0,0x000),
    DN(E_6,1,0xC08),
    DN(G_6,2,0xC07),
    DN(B_6,3,0xC06),
    DN(E_6,1,0xC05),
    DN(G_6,2,0xC04),
    DN(B_6,3,0xC03),
    DN(E_6,1,0xC02),
    DN(G_6,2,0xC01),
    DN(___,0,0xE00),
    DN(___,0,0x000),
    DN(___,0,0x000),
    DN(___,0,0x000),
    DN(E_6,1,0xC08),
    DN(G_6,2,0xC07),
    DN(B_6,3,0xC06),
    DN(E_6,1,0xC05),
    DN(G_6,2,0xC04),
    DN(B_6,3,0xC03),
    DN(E_6,1,0xC02),
    DN(G_6,2,0xC01),
    DN(E_6,1,0xC08),
    DN(G_6,2,0xC07),
    DN(B_6,3,0xC06),
    DN(E_6,1,0xC05),
};
 const unsigned char P13_title[] = {
    DN(G_6,2,0xC04),
    DN(B_6,3,0xC03),
    DN(E_6,1,0xC02),
    DN(G_6,2,0xC01),
    DN(___,0,0xE00),
    DN(___,0,0x000),
    DN(___,0,0x000),
    DN(___,0,0x000),
    DN(F_5,6,0xC06),
    DN(A_5,6,0xC05),
    DN(C_6,6,0xC04),
    DN(F_5,6,0xC03),
    DN(A_5,6,0xC03),
    DN(C_6,6,0xC02),
    DN(F_5,6,0xC01),
    DN(A_5,6,0xC01),
    DN(___,0,0xE00),
    DN(___,0,0x000),
    DN(___,0,0x000),
    DN(___,0,0x000),
    DN(F_5,6,0xC06),
    DN(A_5,6,0xC05),
    DN(C_6,6,0xC04),
    DN(F_5,6,0xC03),
    DN(A_5,6,0xC03),
    DN(C_6,6,0xC02),
    DN(F_5,6,0xC01),
    DN(A_5,6,0xC01),
    DN(F_5,6,0xC06),
    DN(A_5,6,0xC05),
    DN(D_6,6,0xC04),
    DN(F_5,6,0xC03),
    DN(A_5,6,0xC03),
    DN(D_6,6,0xC02),
    DN(F_5,6,0xC01),
    DN(A_5,6,0xC01),
    DN(___,0,0xE00),
    DN(___,0,0x000),
    DN(___,0,0x000),
    DN(___,0,0x000),
    DN(E_5,6,0xC06),
    DN(G_5,6,0xC05),
    DN(B_5,6,0xC04),
    DN(E_5,6,0xC03),
    DN(G_5,6,0xC03),
    DN(B_5,6,0xC02),
    DN(E_5,6,0xC01),
    DN(G_5,6,0xC01),
    DN(___,0,0xE00),
    DN(___,0,0x000),
    DN(___,0,0x000),
    DN(___,0,0x000),
    DN(E_5,6,0xC06),
    DN(G_5,6,0xC05),
    DN(B_5,6,0xC04),
    DN(E_5,6,0xC03),
    DN(G_5,6,0xC03),
    DN(B_5,6,0xC02),
    DN(E_5,6,0xC01),
    DN(G_5,6,0xC01),
    DN(E_5,6,0xC06),
    DN(G_5,6,0xC05),
    DN(B_5,6,0xC04),
    DN(E_5,6,0xC03),
};
 const unsigned char P14_title[] = {
    DN(G_5,6,0xC03),
    DN(B_5,6,0xC02),
    DN(E_5,6,0xC01),
    DN(G_5,6,0xC01),
    DN(___,0,0xE00),
    DN(___,0,0x000),
    DN(___,0,0x000),
    DN(___,0,0x000),
    DN(F_5,6,0xC06),
    DN(A_5,6,0xC05),
    DN(C_6,6,0xC04),
    DN(F_5,6,0xC03),
    DN(A_5,6,0xC03),
    DN(C_6,6,0xC02),
    DN(F_5,6,0xC01),
    DN(A_5,6,0xC01),
    DN(___,0,0xE00),
    DN(___,0,0x000),
    DN(___,0,0x000),
    DN(___,0,0x000),
    DN(F_5,6,0xC06),
    DN(A_5,6,0xC05),
    DN(C_6,6,0xC04),
    DN(F_5,6,0xC03),
    DN(A_5,6,0xC03),
    DN(C_6,6,0xC02),
    DN(F_5,6,0xC01),
    DN(A_5,6,0xC01),
    DN(F_5,6,0xC06),
    DN(A_5,6,0xC05),
    DN(D_6,6,0xC04),
    DN(F_5,6,0xC03),
    DN(A_5,6,0xC03),
    DN(D_6,6,0xC02),
    DN(F_5,6,0xC01),
    DN(A_5,6,0xC01),
    DN(___,0,0xE00),
    DN(___,0,0x000),
    DN(___,0,0x000),
    DN(___,0,0x000),
    DN(E_5,6,0xC06),
    DN(G_5,6,0xC05),
    DN(B_5,6,0xC04),
    DN(E_5,6,0xC03),
    DN(G_5,6,0xC03),
    DN(B_5,6,0xC02),
    DN(E_5,6,0xC01),
    DN(G_5,6,0xC01),
    DN(___,0,0xE00),
    DN(___,0,0x000),
    DN(___,0,0x000),
    DN(___,0,0x000),
    DN(E_5,6,0xC06),
    DN(G_5,6,0xC05),
    DN(B_5,6,0xC04),
    DN(E_5,6,0xC03),
    DN(G_5,6,0xC03),
    DN(B_5,6,0xC02),
    DN(E_5,6,0xC01),
    DN(G_5,6,0xC01),
    DN(E_5,6,0xC06),
    DN(G_5,6,0xC05),
    DN(B_5,6,0xC04),
    DN(E_5,6,0xC03),
};
 const unsigned char P15_title[] = {
    DN(G_5,6,0xC03),
    DN(B_5,6,0xC02),
    DN(E_5,6,0xC01),
    DN(G_5,6,0xC01),
    DN(___,0,0xE00),
    DN(___,0,0x000),
    DN(___,0,0x000),
    DN(___,0,0x000),
    DN(F_6,1,0xC08),
    DN(A_6,2,0xC07),
    DN(C_7,3,0xC06),
    DN(F_6,1,0xC05),
    DN(A_6,2,0xC04),
    DN(C_7,3,0xC03),
    DN(F_6,1,0xC02),
    DN(A_6,2,0xC01),
    DN(___,0,0xE00),
    DN(___,0,0x000),
    DN(___,0,0x000),
    DN(___,0,0x000),
    DN(F_6,1,0xC08),
    DN(A_6,2,0xC07),
    DN(C_7,3,0xC06),
    DN(F_6,1,0xC05),
    DN(A_6,2,0xC04),
    DN(C_7,3,0xC03),
    DN(F_6,1,0xC02),
    DN(A_6,2,0xC01),
    DN(F_6,1,0xC08),
    DN(A_6,2,0xC07),
    DN(D_7,3,0xC06),
    DN(F_6,1,0xC05),
    DN(A_6,2,0xC04),
    DN(D_7,3,0xC03),
    DN(F_6,1,0xC02),
    DN(A_6,2,0xC01),
    DN(___,0,0xE00),
    DN(___,0,0x000),
    DN(___,0,0x000),
    DN(___,0,0x000),
    DN(E_6,1,0xC08),
    DN(G_6,2,0xC07),
    DN(B_6,3,0xC06),
    DN(E_6,1,0xC05),
    DN(G_6,2,0xC04),
    DN(B_6,3,0xC03),
    DN(E_6,1,0xC02),
    DN(G_6,2,0xC01),
    DN(___,0,0xE00),
    DN(___,0,0x000),
    DN(___,0,0x000),
    DN(___,0,0x000),
    DN(E_6,1,0xC08),
    DN(G_6,2,0xC07),
    DN(B_6,3,0xC06),
    DN(E_6,1,0xC05),
    DN(G_6,2,0xC04),
    DN(B_6,3,0xC03),
    DN(E_6,1,0xC02),
    DN(G_6,2,0xC01),
    DN(E_6,1,0xC08),
    DN(G_6,2,0xC07),
    DN(B_6,3,0xC06),
    DN(E_6,1,0xC05),
};
 const unsigned char P16_title[] = {
    DN(D_4,1,0xC08),
    DN(D_6,0,0x350),
    DN(___,0,0x350),
    DN(___,0,0x350),
    DN(___,0,0x350),
    DN(D_6,1,0xC08),
    DN(___,0,0x000),
    DN(___,0,0x000),
    DN(___,0,0x000),
    DN(___,0,0x000),
    DN(___,0,0x000),
    DN(___,0,0x000),
    DN(___,0,0x422),
    DN(___,0,0x422),
    DN(___,0,0x422),
    DN(___,0,0x422),
    DN(___,0,0x422),
    DN(___,0,0x422),
    DN(___,0,0x422),
    DN(___,0,0x422),
    DN(___,0,0x422),
    DN(___,0,0x422),
    DN(___,0,0x422),
    DN(___,0,0x422),
    DN(___,0,0x422),
    DN(___,0,0x422),
    DN(___,0,0x422),
    DN(___,0,0x422),
    DN(___,0,0x422),
    DN(___,0,0x422),
    DN(___,0,0x422),
    DN(___,0,0x422),
    DN(___,0,0x422),
    DN(___,0,0x422),
    DN(___,0,0x422),
    DN(___,0,0x422),
    DN(___,0,0x422),
    DN(___,0,0x422),
    DN(___,0,0x422),
    DN(___,0,0x422),
    DN(___,0,0x422),
    DN(___,0,0x422),
    DN(___,0,0x422),
    DN(___,0,0x422),
    DN(___,0,0x422),
    DN(___,0,0x422),
    DN(___,0,0x422),
    DN(___,0,0x422),
    DN(C_6,1,0xC08),
    DN(___,0,0x422),
    DN(___,0,0x422),
    DN(___,0,0x422),
    DN(B_5,1,0xC08),
    DN(___,0,0x422),
    DN(___,0,0x422),
    DN(___,0,0x422),
    DN(A_5,1,0xC08),
    DN(___,0,0x422),
    DN(___,0,0x422),
    DN(___,0,0x422),
    DN(G_5,1,0xC08),
    DN(___,0,0x422),
    DN(___,0,0x422),
    DN(___,0,0x422),
};
 const unsigned char P17_title[] = {
    DN(A_5,1,0xC08),
    DN(___,0,0x422),
    DN(___,0,0x422),
    DN(___,0,0x422),
    DN(B_5,1,0xC08),
    DN(___,0,0x422),
    DN(___,0,0x422),
    DN(___,0,0x422),
    DN(A_5,1,0xC08),
    DN(___,0,0x422),
    DN(___,0,0x422),
    DN(___,0,0x422),
    DN(___,0,0x422),
    DN(___,0,0x422),
    DN(___,0,0x422),
    DN(___,0,0x422),
    DN(___,0,0x422),
    DN(___,0,0x422),
    DN(___,0,0x422),
    DN(___,0,0x422),
    DN(___,0,0x422),
    DN(___,0,0x422),
    DN(___,0,0x422),
    DN(___,0,0x422),
    DN(___,0,0x422),
    DN(___,0,0x422),
    DN(___,0,0x422),
    DN(___,0,0x422),
    DN(___,0,0x422),
    DN(___,0,0x422),
    DN(___,0,0x422),
    DN(___,0,0x422),
    DN(A_5,1,0xC08),
    DN(___,0,0x422),
    DN(___,0,0x422),
    DN(___,0,0x422),
    DN(G_5,1,0xC09),
    DN(___,0,0x422),
    DN(___,0,0x422),
    DN(___,0,0x422),
    DN(F_5,1,0xC09),
    DN(___,0,0x422),
    DN(___,0,0x422),
    DN(___,0,0x422),
    DN(E_5,1,0xC09),
    DN(___,0,0x422),
    DN(___,0,0x422),
    DN(___,0,0x422),
    DN(___,0,0x422),
    DN(___,0,0x422),
    DN(___,0,0x422),
    DN(___,0,0x422),
    DN(F_5,1,0xC09),
    DN(___,0,0x422),
    DN(___,0,0x422),
    DN(___,0,0x422),
    DN(E_5,1,0xC09),
    DN(___,0,0x422),
    DN(___,0,0x422),
    DN(___,0,0x422),
    DN(D_5,1,0xC09),
    DN(___,0,0x422),
    DN(___,0,0x422),
    DN(___,0,0x422),
};
 const unsigned char P18_title[] = {
    DN(D_5,3,0xC07),
    DN(D_7,0,0x350),
    DN(___,0,0x350),
    DN(___,0,0x350),
    DN(___,0,0x350),
    DN(D_7,3,0xC07),
    DN(___,0,0x000),
    DN(___,0,0x000),
    DN(___,0,0x000),
    DN(___,0,0x000),
    DN(___,0,0x000),
    DN(___,0,0x000),
    DN(___,0,0x444),
    DN(___,0,0x444),
    DN(___,0,0x444),
    DN(___,0,0x444),
    DN(___,0,0x444),
    DN(___,0,0x444),
    DN(___,0,0x444),
    DN(___,0,0x444),
    DN(___,0,0x444),
    DN(___,0,0x444),
    DN(___,0,0x444),
    DN(___,0,0x444),
    DN(___,0,0x444),
    DN(___,0,0x444),
    DN(___,0,0x444),
    DN(___,0,0x444),
    DN(___,0,0x444),
    DN(___,0,0x444),
    DN(___,0,0x444),
    DN(___,0,0x444),
    DN(___,0,0x444),
    DN(___,0,0x444),
    DN(___,0,0x444),
    DN(___,0,0x444),
    DN(___,0,0x444),
    DN(___,0,0x444),
    DN(___,0,0x444),
    DN(___,0,0x444),
    DN(___,0,0x444),
    DN(___,0,0x444),
    DN(___,0,0x444),
    DN(___,0,0x444),
    DN(___,0,0x444),
    DN(___,0,0x444),
    DN(___,0,0x444),
    DN(___,0,0x444),
    DN(C_7,3,0xC07),
    DN(___,0,0x444),
    DN(___,0,0x444),
    DN(___,0,0x444),
    DN(B_6,3,0xC07),
    DN(___,0,0x444),
    DN(___,0,0x444),
    DN(___,0,0x444),
    DN(A_6,3,0xC07),
    DN(___,0,0x444),
    DN(___,0,0x444),
    DN(___,0,0x444),
    DN(G_6,3,0xC07),
    DN(___,0,0x444),
    DN(___,0,0x444),
    DN(___,0,0x444),
};
 const unsigned char P19_title[] = {
    DN(A_6,3,0xC07),
    DN(___,0,0x444),
    DN(___,0,0x444),
    DN(___,0,0x444),
    DN(B_6,3,0xC07),
    DN(___,0,0x444),
    DN(___,0,0x444),
    DN(___,0,0x444),
    DN(A_6,3,0xC07),
    DN(___,0,0x444),
    DN(___,0,0x444),
    DN(___,0,0x444),
    DN(___,0,0x444),
    DN(___,0,0x444),
    DN(___,0,0x444),
    DN(___,0,0x444),
    DN(___,0,0x444),
    DN(___,0,0x444),
    DN(___,0,0x444),
    DN(___,0,0x444),
    DN(___,0,0x444),
    DN(___,0,0x444),
    DN(___,0,0x444),
    DN(___,0,0x444),
    DN(___,0,0x444),
    DN(___,0,0x444),
    DN(___,0,0x444),
    DN(___,0,0x444),
    DN(___,0,0x444),
    DN(___,0,0x444),
    DN(___,0,0x444),
    DN(___,0,0x444),
    DN(A_6,3,0xC07),
    DN(___,0,0x444),
    DN(___,0,0x444),
    DN(___,0,0x444),
    DN(G_6,3,0xC07),
    DN(___,0,0x444),
    DN(___,0,0x444),
    DN(___,0,0x444),
    DN(F_6,3,0xC07),
    DN(___,0,0x444),
    DN(___,0,0x444),
    DN(___,0,0x444),
    DN(E_6,3,0xC07),
    DN(___,0,0x444),
    DN(___,0,0x444),
    DN(___,0,0x444),
    DN(___,0,0x444),
    DN(___,0,0x444),
    DN(___,0,0x444),
    DN(___,0,0x444),
    DN(F_6,3,0xC07),
    DN(___,0,0x444),
    DN(___,0,0x444),
    DN(___,0,0x444),
    DN(E_6,3,0xC07),
    DN(___,0,0x444),
    DN(___,0,0x444),
    DN(___,0,0x444),
    DN(D_6,3,0xC07),
    DN(___,0,0x110),
    DN(___,0,0x110),
    DN(___,0,0x110),
};
 const unsigned char P20_title[] = {
    DN(D_3,6,0xC08),
    DN(___,0,0x000),
    DN(___,0,0x000),
    DN(___,0,0x000),
    DN(___,0,0x000),
    DN(___,0,0x000),
    DN(___,0,0x000),
    DN(___,0,0x000),
    DN(D_4,6,0xC08),
    DN(___,0,0x000),
    DN(___,0,0xE00),
    DN(___,0,0x000),
    DN(A_3,6,0xC08),
    DN(___,0,0x000),
    DN(___,0,0x000),
    DN(___,0,0x000),
    DN(C_4,6,0xC06),
    DN(___,0,0x000),
    DN(___,0,0xE00),
    DN(___,0,0x000),
    DN(C_4,6,0xC08),
    DN(___,0,0x000),
    DN(___,0,0x000),
    DN(___,0,0x000),
    DN(___,0,0x000),
    DN(___,0,0x000),
    DN(___,0,0x000),
    DN(___,0,0x000),
    DN(D_4,6,0xC08),
    DN(___,0,0x000),
    DN(___,0,0xE00),
    DN(___,0,0x000),
    DN(A_4,3,0xC08),
    DN(___,0,0x204),
    DN(___,0,0x204),
    DN(___,0,0x204),
    DN(___,0,0x204),
    DN(___,0,0x204),
    DN(___,0,0x204),
    DN(___,0,0x204),
    DN(___,0,0x204),
    DN(___,0,0x204),
    DN(___,0,0x204),
    DN(___,0,0x204),
    DN(___,0,0x204),
    DN(___,0,0x204),
    DN(___,0,0x204),
    DN(___,0,0x204),
    DN(___,0,0x204),
    DN(___,0,0x204),
    DN(___,0,0x204),
    DN(___,0,0x204),
    DN(___,0,0x204),
    DN(___,0,0x204),
    DN(___,0,0x204),
    DN(___,0,0x204),
    DN(___,0,0x204),
    DN(___,0,0x204),
    DN(___,0,0x204),
    DN(___,0,0x204),
    DN(___,0,0x204),
    DN(___,0,0x204),
    DN(___,0,0x204),
    DN(___,0,0x204),
};
 const unsigned char P21_title[] = {
    DN(D_3,1,0xC06),
    DN(___,0,0x455),
    DN(___,0,0x455),
    DN(___,0,0x455),
    DN(___,0,0x455),
    DN(___,0,0x455),
    DN(___,0,0x455),
    DN(___,0,0x455),
    DN(D_4,1,0xC06),
    DN(___,0,0x455),
    DN(___,0,0xE00),
    DN(___,0,0x455),
    DN(A_3,1,0xC06),
    DN(___,0,0x455),
    DN(___,0,0x455),
    DN(___,0,0x455),
    DN(C_4,1,0xC06),
    DN(___,0,0x455),
    DN(___,0,0xE00),
    DN(___,0,0x455),
    DN(C_4,1,0xC06),
    DN(___,0,0x455),
    DN(___,0,0x455),
    DN(___,0,0x455),
    DN(___,0,0x455),
    DN(___,0,0x455),
    DN(___,0,0x455),
    DN(___,0,0x455),
    DN(D_4,1,0xC06),
    DN(___,0,0x455),
    DN(___,0,0xE00),
    DN(___,0,0x455),
    DN(B_3,1,0xC06),
    DN(___,0,0x455),
    DN(___,0,0x455),
    DN(___,0,0x455),
    DN(___,0,0x455),
    DN(___,0,0x455),
    DN(___,0,0x455),
    DN(___,0,0x455),
    DN(___,0,0x455),
    DN(___,0,0x455),
    DN(___,0,0x455),
    DN(___,0,0x455),
    DN(G_3,1,0xC06),
    DN(___,0,0x455),
    DN(___,0,0x455),
    DN(___,0,0x455),
    DN(A_3,1,0xC06),
    DN(___,0,0xE00),
    DN(A_3,1,0xC06),
    DN(___,0,0xE00),
    DN(A_3,1,0xC06),
    DN(___,0,0x455),
    DN(___,0,0x455),
    DN(___,0,0xE00),
    DN(A_3,1,0xC06),
    DN(___,0,0x455),
    DN(___,0,0x455),
    DN(___,0,0x455),
    DN(F_3,1,0xC06),
    DN(___,0,0x455),
    DN(___,0,0x455),
    DN(___,0,0x455),
};
 const unsigned char P22_title[] = {
    DN(D_3,1,0xC06),
    DN(___,0,0x455),
    DN(___,0,0x455),
    DN(___,0,0x455),
    DN(___,0,0x455),
    DN(___,0,0x455),
    DN(___,0,0x455),
    DN(___,0,0x455),
    DN(D_4,1,0xC06),
    DN(___,0,0x455),
    DN(___,0,0xE00),
    DN(___,0,0x455),
    DN(A_3,1,0xC06),
    DN(___,0,0x455),
    DN(___,0,0x455),
    DN(___,0,0x455),
    DN(C_4,1,0xC06),
    DN(___,0,0x455),
    DN(___,0,0xE00),
    DN(___,0,0x455),
    DN(C_4,1,0xC06),
    DN(___,0,0x455),
    DN(___,0,0x455),
    DN(___,0,0x455),
    DN(___,0,0x455),
    DN(___,0,0x455),
    DN(___,0,0x455),
    DN(___,0,0x455),
    DN(D_4,1,0xC06),
    DN(___,0,0x455),
    DN(___,0,0xE00),
    DN(___,0,0x455),
    DN(B_3,1,0xC06),
    DN(___,0,0x455),
    DN(___,0,0x455),
    DN(___,0,0x455),
    DN(___,0,0x455),
    DN(___,0,0x455),
    DN(___,0,0x455),
    DN(___,0,0x455),
    DN(___,0,0x455),
    DN(___,0,0x455),
    DN(___,0,0x455),
    DN(___,0,0x455),
    DN(G_3,1,0xC06),
    DN(___,0,0x455),
    DN(___,0,0x455),
    DN(___,0,0x455),
    DN(A_3,1,0xC06),
    DN(___,0,0x455),
    DN(___,0,0x455),
    DN(___,0,0x455),
    DN(C_3,1,0xC06),
    DN(___,0,0x455),
    DN(___,0,0x455),
    DN(___,0,0x455),
    DN(___,0,0x455),
    DN(___,0,0x455),
    DN(Cs3,1,0xC06),
    DN(___,0,0x455),
    DN(___,0,0x455),
    DN(___,0,0x455),
    DN(___,0,0x455),
    DN(___,0,0x455),
};
 const unsigned char P23_title[] = {
    DN(D_4,1,0xC06),
    DN(___,0,0x000),
    DN(___,0,0x000),
    DN(___,0,0x000),
    DN(___,0,0x000),
    DN(___,0,0x000),
    DN(___,0,0x000),
    DN(___,0,0x000),
    DN(D_5,1,0xC06),
    DN(___,0,0x000),
    DN(___,0,0xE00),
    DN(___,0,0x000),
    DN(A_4,1,0xC06),
    DN(___,0,0x000),
    DN(___,0,0x000),
    DN(___,0,0x000),
    DN(C_5,1,0xC06),
    DN(___,0,0x000),
    DN(___,0,0xE00),
    DN(___,0,0x000),
    DN(C_5,1,0xC06),
    DN(___,0,0x000),
    DN(___,0,0x000),
    DN(___,0,0x000),
    DN(___,0,0x000),
    DN(___,0,0x000),
    DN(___,0,0x000),
    DN(___,0,0x000),
    DN(D_5,1,0xC06),
    DN(___,0,0x000),
    DN(___,0,0xE00),
    DN(___,0,0x000),
    DN(B_4,1,0xC06),
    DN(___,0,0x000),
    DN(___,0,0x000),
    DN(___,0,0x000),
    DN(___,0,0x000),
    DN(___,0,0x000),
    DN(___,0,0x000),
    DN(___,0,0x000),
    DN(___,0,0x000),
    DN(___,0,0x000),
    DN(___,0,0x000),
    DN(___,0,0x000),
    DN(G_4,1,0xC06),
    DN(___,0,0x000),
    DN(___,0,0x000),
    DN(___,0,0x000),
    DN(A_4,1,0xC06),
    DN(___,0,0x000),
    DN(___,0,0x000),
    DN(___,0,0x000),
    DN(C_4,1,0xC06),
    DN(___,0,0x000),
    DN(___,0,0x000),
    DN(___,0,0x000),
    DN(___,0,0x000),
    DN(___,0,0x000),
    DN(Cs4,1,0xC06),
    DN(___,0,0x000),
    DN(___,0,0x000),
    DN(___,0,0x000),
    DN(___,0,0x000),
    DN(___,0,0x000),
};
 const unsigned char P24_title[] = {
    DN(E_4,1,0xC0F),
    DN(D_3,2,0x000),
    DN(___,0,0x000),
    DN(___,0,0x000),
    DN(___,0,0x000),
    DN(___,0,0x000),
    DN(___,0,0x000),
    DN(___,0,0x000),
    DN(A_5,1,0x000),
    DN(___,0,0xC08),
    DN(D_4,2,0xC0F),
    DN(___,0,0x000),
    DN(A_3,2,0x000),
    DN(___,0,0x000),
    DN(___,0,0x000),
    DN(___,0,0x000),
    DN(E_4,1,0x000),
    DN(C_4,2,0x000),
    DN(___,0,0xE00),
    DN(___,0,0x000),
    DN(C_4,2,0x000),
    DN(___,0,0x000),
    DN(___,0,0x000),
    DN(___,0,0x000),
    DN(A_5,1,0x000),
    DN(___,0,0xC08),
    DN(C_4,2,0xC0F),
    DN(___,0,0x000),
    DN(D_4,2,0x000),
    DN(___,0,0x000),
    DN(___,0,0xE00),
    DN(___,0,0x000),
    DN(E_4,1,0x000),
    DN(B_3,2,0x000),
    DN(___,0,0x000),
    DN(___,0,0x000),
    DN(___,0,0x000),
    DN(___,0,0x000),
    DN(___,0,0x000),
    DN(___,0,0x000),
    DN(A_5,1,0x000),
    DN(___,0,0xC08),
    DN(B_3,2,0xC0F),
    DN(___,0,0x000),
    DN(G_3,2,0x000),
    DN(___,0,0x000),
    DN(___,0,0x000),
    DN(___,0,0x000),
    DN(E_4,1,0x000),
    DN(A_3,2,0x000),
    DN(___,0,0x000),
    DN(___,0,0x000),
    DN(A_5,1,0x000),
    DN(___,0,0xC08),
    DN(C_3,2,0xC0F),
    DN(___,0,0x000),
    DN(___,0,0x000),
    DN(___,0,0x000),
    DN(A_5,1,0x000),
    DN(___,0,0xC08),
    DN(Cs3,2,0xC0F),
    DN(___,0,0x000),
    DN(___,0,0x000),
    DN(___,0,0x000),
};
 const unsigned char P25_title[] = {
    DN(E_6,2,0xC07),
    DN(___,0,0xC03),
    DN(___,0,0xC01),
    DN(___,0,0xE00),
    DN(G_7,2,0xC04),
    DN(___,0,0xC02),
    DN(___,0,0xC01),
    DN(___,0,0x000),
    DN(B_6,2,0xC06),
    DN(___,0,0xC05),
    DN(___,0,0xC04),
    DN(___,0,0xC02),
    DN(G_7,2,0xC04),
    DN(___,0,0xC02),
    DN(___,0,0xC01),
    DN(___,0,0x000),
    DN(E_6,2,0xC07),
    DN(___,0,0xC03),
    DN(___,0,0xC01),
    DN(___,0,0xE00),
    DN(G_7,2,0xC04),
    DN(___,0,0xC02),
    DN(___,0,0xC01),
    DN(___,0,0x000),
    DN(B_6,2,0xC06),
    DN(___,0,0xC05),
    DN(___,0,0xC04),
    DN(___,0,0xC02),
    DN(G_7,2,0xC04),
    DN(___,0,0xC02),
    DN(___,0,0xC01),
    DN(___,0,0x000),
    DN(E_6,2,0xC07),
    DN(___,0,0xC03),
    DN(___,0,0xC01),
    DN(___,0,0xE00),
    DN(G_7,2,0xC04),
    DN(___,0,0xC02),
    DN(___,0,0xC01),
    DN(___,0,0x000),
    DN(B_6,2,0xC06),
    DN(___,0,0xC05),
    DN(___,0,0xC04),
    DN(___,0,0xC02),
    DN(G_7,2,0xC04),
    DN(___,0,0xC02),
    DN(___,0,0xC01),
    DN(___,0,0x000),
    DN(E_6,2,0xC07),
    DN(___,0,0xC03),
    DN(___,0,0xC01),
    DN(___,0,0xE00),
    DN(B_6,2,0xC06),
    DN(___,0,0xC05),
    DN(___,0,0xC04),
    DN(___,0,0xC02),
    DN(___,0,0x000),
    DN(___,0,0x000),
    DN(B_6,2,0xC06),
    DN(___,0,0xC05),
    DN(___,0,0xC04),
    DN(___,0,0xC02),
    DN(___,0,0x000),
    DN(___,0,0x000),
};
 const unsigned char P26_title[] = {
    DN(A_6,4,0xC06),
    DN(___,0,0x311),
    DN(___,0,0x311),
    DN(___,0,0x311),
    DN(D_6,0,0x311),
    DN(___,0,0x311),
    DN(___,0,0x311),
    DN(___,0,0x311),
    DN(G_6,0,0x311),
    DN(___,0,0x311),
    DN(___,0,0x311),
    DN(___,0,0x311),
    DN(C_6,0,0x311),
    DN(___,0,0x311),
    DN(___,0,0x311),
    DN(___,0,0x311),
    DN(Ds6,0,0x311),
    DN(___,0,0x311),
    DN(___,0,0x311),
    DN(___,0,0x311),
    DN(Gs5,0,0x311),
    DN(___,0,0x311),
    DN(___,0,0x311),
    DN(___,0,0x311),
    DN(Cs6,0,0x311),
    DN(___,0,0x311),
    DN(___,0,0x311),
    DN(___,0,0x311),
    DN(Fs5,0,0x311),
    DN(___,0,0x311),
    DN(___,0,0x311),
    DN(___,0,0x311),
    DN(B_5,0,0x311),
    DN(___,0,0x311),
    DN(___,0,0x311),
    DN(___,0,0x311),
    DN(E_5,0,0x311),
    DN(___,0,0x311),
    DN(___,0,0x311),
    DN(___,0,0x311),
    DN(A_5,0,0x311),
    DN(___,0,0x311),
    DN(___,0,0x311),
    DN(___,0,0x311),
    DN(D_5,0,0x311),
    DN(___,0,0x311),
    DN(___,0,0x311),
    DN(___,0,0x311),
    DN(G_5,0,0x311),
    DN(___,0,0x311),
    DN(___,0,0x311),
    DN(___,0,0x311),
    DN(C_5,0,0x311),
    DN(___,0,0x311),
    DN(___,0,0x311),
    DN(___,0,0x311),
    DN(F_5,0,0x311),
    DN(___,0,0x311),
    DN(___,0,0x311),
    DN(___,0,0x311),
    DN(A_4,0,0x311),
    DN(___,0,0x311),
    DN(___,0,0x311),
    DN(___,0,0x311),
};
 const unsigned char P27_title[] = {
    DN(D_4,1,0xC06),
    DN(___,0,0x000),
    DN(___,0,0x000),
    DN(___,0,0x000),
    DN(___,0,0x000),
    DN(___,0,0x000),
    DN(___,0,0x000),
    DN(___,0,0x000),
    DN(D_5,1,0xC06),
    DN(___,0,0x000),
    DN(___,0,0xE00),
    DN(___,0,0x000),
    DN(A_4,1,0xC06),
    DN(___,0,0x000),
    DN(___,0,0x000),
    DN(___,0,0x000),
    DN(C_5,1,0xC06),
    DN(___,0,0x000),
    DN(___,0,0xE00),
    DN(___,0,0x000),
    DN(C_5,1,0xC06),
    DN(___,0,0x000),
    DN(___,0,0x000),
    DN(___,0,0x000),
    DN(___,0,0x000),
    DN(___,0,0x000),
    DN(___,0,0x000),
    DN(___,0,0x000),
    DN(D_5,1,0xC06),
    DN(___,0,0x000),
    DN(___,0,0xE00),
    DN(___,0,0x000),
    DN(B_4,1,0xC06),
    DN(___,0,0x000),
    DN(___,0,0x000),
    DN(___,0,0x000),
    DN(___,0,0x000),
    DN(___,0,0x000),
    DN(___,0,0x000),
    DN(___,0,0x000),
    DN(___,0,0x000),
    DN(___,0,0x000),
    DN(___,0,0x000),
    DN(___,0,0x000),
    DN(G_4,1,0xC06),
    DN(___,0,0x000),
    DN(___,0,0x000),
    DN(___,0,0x000),
    DN(A_4,1,0xC06),
    DN(___,0,0xE00),
    DN(A_4,1,0xC06),
    DN(___,0,0xE00),
    DN(A_4,1,0xC06),
    DN(___,0,0x000),
    DN(___,0,0x000),
    DN(___,0,0xE00),
    DN(C_4,1,0xC06),
    DN(___,0,0x000),
    DN(___,0,0x000),
    DN(___,0,0x000),
    DN(Cs4,1,0xC06),
    DN(___,0,0x000),
    DN(___,0,0x000),
    DN(___,0,0x000),
};
 const unsigned char P28_title[] = {
    DN(E_4,1,0xC0F),
    DN(D_3,2,0x000),
    DN(___,0,0x000),
    DN(___,0,0x000),
    DN(___,0,0x000),
    DN(___,0,0x000),
    DN(___,0,0x000),
    DN(___,0,0x000),
    DN(A_5,1,0x000),
    DN(___,0,0xC08),
    DN(D_4,2,0xC0F),
    DN(___,0,0x000),
    DN(A_3,2,0x000),
    DN(___,0,0x000),
    DN(___,0,0x000),
    DN(___,0,0x000),
    DN(E_4,1,0x000),
    DN(C_4,2,0x000),
    DN(___,0,0xE00),
    DN(___,0,0x000),
    DN(C_4,2,0x000),
    DN(___,0,0x000),
    DN(___,0,0x000),
    DN(___,0,0x000),
    DN(A_5,1,0x000),
    DN(___,0,0xC08),
    DN(C_4,2,0xC0F),
    DN(___,0,0x000),
    DN(D_4,2,0x000),
    DN(___,0,0x000),
    DN(___,0,0xE00),
    DN(___,0,0x000),
    DN(E_4,1,0x000),
    DN(B_3,2,0x000),
    DN(___,0,0x000),
    DN(___,0,0x000),
    DN(___,0,0x000),
    DN(___,0,0x000),
    DN(___,0,0x000),
    DN(___,0,0x000),
    DN(A_5,1,0x000),
    DN(___,0,0xC08),
    DN(B_3,2,0xC0F),
    DN(___,0,0x000),
    DN(G_3,2,0x000),
    DN(___,0,0x000),
    DN(___,0,0x000),
    DN(___,0,0x000),
    DN(E_4,1,0x000),
    DN(___,0,0xE00),
    DN(A_3,2,0x000),
    DN(___,0,0xE00),
    DN(A_3,2,0x000),
    DN(___,0,0x000),
    DN(___,0,0x000),
    DN(___,0,0xE00),
    DN(A_5,1,0x000),
    DN(___,0,0xC08),
    DN(C_3,2,0xC0F),
    DN(___,0,0x000),
    DN(A_5,1,0x000),
    DN(Cs3,2,0x000),
    DN(A_5,1,0x000),
    DN(Cs3,2,0x000),
};
 const unsigned char P29_title[] = {
    DN(___,0,0xE00),
    DN(___,0,0x000),
    DN(___,0,0x000),
    DN(___,0,0x000),
    DN(___,0,0x000),
    DN(___,0,0x000),
    DN(___,0,0x000),
    DN(___,0,0x000),
    DN(___,0,0x000),
    DN(___,0,0x000),
    DN(___,0,0x000),
    DN(___,0,0x000),
    DN(___,0,0x000),
    DN(___,0,0x000),
    DN(___,0,0x000),
    DN(___,0,0x000),
    DN(___,0,0x000),
    DN(___,0,0x000),
    DN(___,0,0x000),
    DN(___,0,0x000),
    DN(___,0,0x000),
    DN(___,0,0x000),
    DN(___,0,0x000),
    DN(___,0,0x000),
    DN(___,0,0x000),
    DN(___,0,0x000),
    DN(___,0,0x000),
    DN(___,0,0x000),
    DN(___,0,0x000),
    DN(___,0,0x000),
    DN(___,0,0x000),
    DN(___,0,0x000),
    DN(___,0,0x000),
    DN(___,0,0x000),
    DN(___,0,0x000),
    DN(___,0,0x000),
    DN(___,0,0x000),
    DN(___,0,0x000),
    DN(___,0,0x000),
    DN(___,0,0x000),
    DN(___,0,0x000),
    DN(___,0,0x000),
    DN(___,0,0x000),
    DN(___,0,0x000),
    DN(___,0,0x000),
    DN(___,0,0x000),
    DN(___,0,0x000),
    DN(___,0,0x000),
    DN(___,0,0x000),
    DN(___,0,0x000),
    DN(___,0,0x000),
    DN(___,0,0x000),
    DN(___,0,0x000),
    DN(___,0,0x000),
    DN(___,0,0x000),
    DN(___,0,0x000),
    DN(A_5,1,0x000),
    DN(___,0,0xC08),
    DN(___,0,0xE00),
    DN(___,0,0x000),
    DN(A_5,1,0xC0F),
    DN(___,0,0xC08),
    DN(A_5,1,0xC0F),
    DN(___,0,0xC08),
};
 const unsigned char P30_title[] = {
    DN(B_6,1,0x000),
    DN(___,0,0x000),
    DN(___,0,0x000),
    DN(___,0,0x000),
    DN(B_5,1,0x000),
    DN(___,0,0x000),
    DN(B_5,1,0x000),
    DN(___,0,0x000),
    DN(B_6,1,0x000),
    DN(___,0,0x000),
    DN(___,0,0x000),
    DN(___,0,0x000),
    DN(B_5,1,0x000),
    DN(___,0,0x000),
    DN(B_5,1,0x000),
    DN(___,0,0x000),
    DN(B_6,1,0x000),
    DN(___,0,0x000),
    DN(___,0,0x000),
    DN(___,0,0x000),
    DN(B_5,1,0x000),
    DN(___,0,0x000),
    DN(B_5,1,0x000),
    DN(___,0,0x000),
    DN(B_6,1,0x000),
    DN(___,0,0x000),
    DN(___,0,0x000),
    DN(___,0,0x000),
    DN(B_5,1,0x000),
    DN(___,0,0x000),
    DN(B_5,1,0x000),
    DN(___,0,0x000),
    DN(B_6,1,0x000),
    DN(___,0,0x000),
    DN(___,0,0x000),
    DN(___,0,0x000),
    DN(B_5,1,0x000),
    DN(___,0,0x000),
    DN(B_5,1,0x000),
    DN(___,0,0x000),
    DN(B_6,1,0x000),
    DN(___,0,0x000),
    DN(___,0,0x000),
    DN(___,0,0x000),
    DN(B_5,1,0x000),
    DN(___,0,0x000),
    DN(B_5,1,0x000),
    DN(___,0,0x000),
    DN(B_6,1,0x000),
    DN(___,0,0x000),
    DN(___,0,0x000),
    DN(___,0,0x000),
    DN(B_5,1,0x000),
    DN(___,0,0x000),
    DN(B_5,1,0x000),
    DN(___,0,0x000),
    DN(B_6,1,0x000),
    DN(___,0,0x000),
    DN(___,0,0x000),
    DN(___,0,0x000),
    DN(B_5,1,0x000),
    DN(___,0,0x000),
    DN(B_5,1,0x000),
    DN(___,0,0x000),
};

 const unsigned char itSquareSP5_title[] = {
    DN(36,0,0x000),
    DN(36,0,0x000),
    DN(36,0,0x000),
    DN(40,0,0x000),
    DN(40,0,0x000),
    DN(40,0,0x000),
    DN(43,0,0x000),
    DN(43,0,0x000),
    DN(43,0,0x000),
    DN(48,0,0x000),
    DN(48,0,0x000),
    DN(48,0,0x000),
    DN(52,0,0x000),
    DN(52,0,0x000),
    DN(52,0,0x000),
    DN(35,0,0x000),
    DN(35,0,0x000),
    DN(35,1,0x000),
    DN(___,0,0x000),
    DN(___,0,0x000),
    DN(___,0,0x000),
    DN(___,0,0x000),
    DN(___,0,0x000),
    DN(___,0,0x000),
    DN(___,0,0x000),
    DN(___,0,0x000),
    DN(___,0,0x000),
    DN(___,0,0x000),
    DN(___,0,0x000),
    DN(___,0,0x000),
    DN(___,0,0x000),
    DN(___,1,0x000),
};
 const unsigned char itSquareSP6_title[] = {
    DN(36,0,0x000),
    DN(55,0,0x000),
    DN(36,0,0x000),
    DN(___,0,0x000),
    DN(___,0,0x000),
    DN(___,0,0x000),
    DN(___,0,0x000),
    DN(___,0,0x000),
    DN(___,0,0x000),
    DN(___,0,0x000),
    DN(___,0,0x000),
    DN(___,0,0x000),
    DN(___,0,0x000),
    DN(___,0,0x000),
    DN(___,0,0x000),
    DN(___,0,0x000),
    DN(___,0,0x000),
    DN(___,0,0x000),
    DN(___,0,0x000),
    DN(___,0,0x000),
    DN(___,0,0x000),
    DN(___,0,0x000),
    DN(___,0,0x000),
    DN(___,0,0x000),
    DN(___,0,0x000),
    DN(___,0,0x000),
    DN(___,0,0x000),
    DN(___,0,0x000),
    DN(___,0,0x000),
    DN(___,0,0x000),
    DN(___,0,0x000),
    DN(___,1,0x000),
};
 const unsigned char itWaveSP1_title[] = {
    DN(___,0,0x277),
    DN(___,0,0x277),
    DN(___,0,0x277),
    DN(___,0,0x277),
    DN(___,0,0x277),
    DN(___,0,0x277),
    DN(___,0,0x277),
    DN(___,0,0x277),
    DN(___,0,0x277),
    DN(___,0,0x000),
    DN(___,0,0x000),
    DN(___,0,0x000),
    DN(___,0,0x000),
    DN(___,0,0x000),
    DN(___,0,0x000),
    DN(___,0,0x000),
    DN(___,0,0x000),
    DN(___,0,0x000),
    DN(___,0,0x000),
    DN(___,0,0x000),
    DN(___,0,0x000),
    DN(___,0,0x000),
    DN(___,0,0x000),
    DN(___,0,0x000),
    DN(___,0,0x000),
    DN(___,0,0x000),
    DN(___,0,0x000),
    DN(___,0,0x000),
    DN(___,0,0x000),
    DN(___,0,0x000),
    DN(___,0,0x000),
    DN(___,1,0x000),
};
 const unsigned char* const order1_title[] = {P0_title,P4_title,P8_title,P12_title,P13_title,P14_title,P15_title,P12_title,P12_title,P12_title,P12_title,P12_title,P21_title,P22_title,P26_title,P4_title,P0_title};
 const unsigned char* const order2_title[] = {P1_title,P5_title,P9_title,P9_title,P9_title,P9_title,P16_title,P17_title,P18_title,P19_title,P9_title,P20_title,P9_title,P23_title,P9_title,P27_title,P1_title};
 const unsigned char* const order3_title[] = {P2_title,P6_title,P10_title,P10_title,P10_title,P10_title,P10_title,P10_title,P10_title,P10_title,P10_title,P10_title,P10_title,P24_title,P10_title,P28_title,P29_title};
 const unsigned char* const order4_title[] = {P3_title,P7_title,P11_title,P11_title,P11_title,P11_title,P11_title,P11_title,P11_title,P11_title,P11_title,P11_title,P11_title,P25_title,P11_title,P11_title,P30_title};

 const hUGEDutyInstr_t duty_instruments_title[] = {
    {8,0,240,0,128},
    {8,64,240,0,128},
    {8,128,240,0,128},
    {8,192,240,0,128},
    {8,192,240,itSquareSP5_title,128},
    {8,128,240,itSquareSP6_title,128},
};
 const hUGEWaveInstr_t wave_instruments_title[] = {
    {0,32,0,itWaveSP1_title,128},
    {0,32,1,0,128},
    {0,32,2,0,128},
    {0,32,3,0,128},
};
 const hUGENoiseInstr_t noise_instruments_title[] = {
    {128,0,252,0,0},
    {240,0,0,0,0},
};

 const unsigned char waves_title[] = {
    0,18,52,87,138,188,222,255,255,237,203,168,117,67,33,0,
    1,56,206,255,237,186,151,102,85,104,154,169,152,101,66,16,
    253,185,102,71,77,213,232,170,85,232,55,167,171,53,123,149,
    248,136,136,136,136,136,136,136,8,136,136,136,136,136,136,136,
};

const hUGESong_t title_screen_music = {3, &order_cnt_title, order1_title, order2_title, order3_title,order4_title, duty_instruments_title, wave_instruments_title, noise_instruments_title, NULL, waves_title};
